<svg xmlns="http://www.w3.org/2000/svg" xmlns:xlink="http://www.w3.org/1999/xlink" width="100" zoomAndPan="magnify" viewBox="0 0 75 74.999997" height="100" preserveAspectRatio="xMidYMid meet" version="1.0"><defs><clipPath id="1afcaae5f8"><path d="M 0.613281 0 L 74.113281 0 L 74.113281 75 L 0.613281 75 Z M 0.613281 0 " clip-rule="nonzero"/></clipPath></defs><g clip-path="url(#1afcaae5f8)"><path fill="#e8cace" d="M 41.9375 67.21875 Z M 74.074219 12.0625 L 74.054688 12.097656 C 74.003906 12.21875 73.953125 12.308594 73.933594 12.34375 C 73.8125 12.585938 73.671875 12.832031 73.566406 13.023438 C 73.445312 13.25 73.324219 13.480469 73.203125 13.707031 C 73.082031 13.933594 72.957031 14.160156 72.835938 14.386719 C 72.820312 14.441406 72.503906 15.050781 72.488281 15.070312 C 72.488281 15.050781 72.835938 14.421875 72.855469 14.386719 C 72.835938 14.421875 72.574219 14.949219 72.503906 15.070312 C 72.417969 15.246094 72.261719 15.542969 72.15625 15.75 C 72.070312 15.910156 71.914062 16.222656 71.808594 16.433594 C 71.738281 16.574219 71.53125 16.957031 71.441406 17.117188 C 71.339844 17.308594 71.183594 17.605469 71.09375 17.796875 C 70.957031 18.058594 70.867188 18.214844 70.730469 18.480469 L 70.378906 19.160156 C 70.328125 19.25 70.085938 19.71875 70.03125 19.84375 C 70.015625 19.894531 69.667969 20.523438 69.667969 20.523438 C 69.667969 20.507812 69.960938 19.949219 70.015625 19.84375 C 70.121094 19.632812 70.257812 19.371094 70.363281 19.160156 C 70.46875 18.949219 70.589844 18.707031 70.710938 18.480469 L 71.058594 17.796875 L 70.328125 19.160156 C 70.207031 19.386719 70.101562 19.617188 69.980469 19.84375 C 69.910156 19.984375 69.683594 20.402344 69.613281 20.523438 C 69.597656 20.558594 69.578125 20.59375 69.5625 20.628906 C 69.421875 20.804688 69.265625 21.015625 69.160156 21.136719 L 68.222656 22.324219 C 68.117188 22.449219 67.871094 22.761719 67.75 22.917969 C 67.628906 23.058594 67.382812 23.375 67.261719 23.515625 C 67.125 23.6875 66.914062 23.949219 66.792969 24.109375 C 66.601562 24.335938 66.496094 24.476562 66.304688 24.703125 C 66.183594 24.859375 65.957031 25.140625 65.835938 25.296875 C 65.746094 25.402344 65.417969 25.804688 65.347656 25.890625 C 65.277344 25.960938 64.929688 26.398438 64.859375 26.484375 C 64.753906 26.625 64.476562 26.992188 64.386719 27.082031 C 64.335938 27.148438 63.988281 27.585938 63.917969 27.675781 C 63.847656 27.761719 63.484375 28.199219 63.429688 28.269531 C 63.273438 28.480469 63.101562 28.6875 62.960938 28.863281 L 62.4375 29.511719 C 62.367188 29.582031 62.039062 30.015625 61.96875 30.105469 C 61.878906 30.210938 61.550781 30.613281 61.480469 30.699219 C 61.339844 30.875 61.167969 31.082031 60.992188 31.292969 C 60.886719 31.433594 60.625 31.75 60.503906 31.886719 C 60.417969 32.011719 60.105469 32.394531 60.035156 32.484375 C 60 32.535156 59.597656 33.042969 59.5625 33.078125 C 59.40625 33.269531 59.199219 33.515625 59.074219 33.671875 C 59.023438 33.742188 58.589844 34.265625 58.589844 34.265625 C 58.589844 34.265625 59.042969 33.707031 59.058594 33.671875 C 58.882812 33.882812 58.726562 34.074219 58.570312 34.265625 C 58.484375 34.386719 58.171875 34.773438 58.101562 34.859375 C 58.011719 34.984375 57.753906 35.316406 57.628906 35.453125 C 57.492188 35.628906 57.28125 35.875 57.140625 36.050781 C 57.003906 36.222656 56.792969 36.484375 56.671875 36.644531 C 56.601562 36.730469 56.238281 37.167969 56.183594 37.238281 C 56.132812 37.308594 55.714844 37.832031 55.714844 37.832031 C 55.714844 37.832031 56.167969 37.273438 56.203125 37.238281 C 56.0625 37.414062 55.871094 37.65625 55.730469 37.832031 C 55.644531 37.9375 55.3125 38.339844 55.242188 38.425781 C 55.140625 38.566406 54.894531 38.847656 54.757812 39.019531 C 54.597656 39.214844 54.425781 39.421875 54.269531 39.617188 C 54.179688 39.738281 53.867188 40.121094 53.796875 40.210938 C 53.695312 40.351562 53.46875 40.628906 53.328125 40.804688 C 53.222656 40.945312 52.960938 41.257812 52.839844 41.398438 C 52.753906 41.503906 52.441406 41.921875 52.371094 41.992188 C 52.195312 42.203125 52.019531 42.429688 51.882812 42.585938 C 51.726562 42.78125 51.570312 42.972656 51.394531 43.164062 L 52.613281 42.429688 L 53.257812 42.027344 C 53.695312 41.765625 54.128906 41.503906 54.566406 41.242188 C 54.703125 41.152344 55.015625 40.960938 55.210938 40.839844 C 55.261719 40.804688 55.820312 40.488281 55.871094 40.453125 C 56.078125 40.332031 56.304688 40.210938 56.53125 40.070312 C 56.707031 39.964844 56.984375 39.808594 57.195312 39.683594 C 57.367188 39.582031 57.664062 39.40625 57.839844 39.28125 C 58.046875 39.160156 58.292969 39.019531 58.5 38.898438 C 58.640625 38.8125 59.058594 38.566406 59.144531 38.496094 C 59.355469 38.355469 59.582031 38.234375 59.789062 38.09375 C 59.980469 37.988281 60.207031 37.832031 60.433594 37.691406 C 60.523438 37.640625 60.992188 37.359375 61.097656 37.308594 C 61.21875 37.238281 61.652344 36.976562 61.742188 36.90625 C 61.96875 36.765625 62.160156 36.644531 62.386719 36.503906 C 62.613281 36.382812 62.839844 36.242188 63.046875 36.117188 C 63.203125 36.03125 63.621094 35.785156 63.710938 35.734375 C 63.65625 35.769531 63.066406 36.117188 63.066406 36.136719 C 63.082031 36.117188 63.675781 35.785156 63.726562 35.75 C 63.675781 35.785156 63.082031 36.136719 63.082031 36.152344 C 63.101562 36.152344 63.65625 35.820312 63.746094 35.769531 C 63.953125 35.648438 64.195312 35.507812 64.40625 35.382812 L 64.894531 35.085938 L 64.964844 35.050781 L 65 35.121094 L 65.433594 35.960938 C 65.328125 35.734375 65.207031 35.488281 65.101562 35.261719 C 65.085938 35.246094 65.066406 35.175781 65.015625 35.105469 L 64.964844 35.015625 L 64.875 35.070312 C 64.667969 35.191406 64.371094 35.367188 64.355469 35.367188 C 64.371094 35.351562 64.683594 35.175781 64.859375 35.050781 L 64.964844 35 L 65.015625 35.105469 C 65.050781 35.175781 65.085938 35.226562 65.085938 35.246094 C 65.191406 35.4375 65.347656 35.734375 65.433594 35.925781 C 65.503906 36.082031 65.710938 36.503906 65.765625 36.625 C 65.800781 36.714844 66.09375 37.308594 66.09375 37.324219 C 66.09375 37.324219 65.765625 36.679688 65.746094 36.644531 C 65.851562 36.851562 65.972656 37.117188 66.09375 37.34375 C 66.183594 37.515625 66.375 37.867188 66.445312 38.023438 C 66.566406 38.269531 66.6875 38.496094 66.792969 38.707031 C 66.84375 38.8125 67.070312 39.230469 67.140625 39.386719 C 67.160156 39.421875 67.472656 40.085938 67.472656 40.085938 C 67.472656 40.085938 67.140625 39.457031 67.125 39.40625 C 67.160156 39.476562 67.417969 40 67.453125 40.105469 C 67.523438 40.226562 67.75 40.683594 67.800781 40.785156 C 67.835938 40.839844 68.132812 41.433594 68.152344 41.46875 C 68.167969 41.503906 68.1875 41.519531 68.1875 41.554688 L 68.222656 41.644531 L 68.152344 41.695312 C 67.960938 41.835938 67.75 41.976562 67.59375 42.082031 C 67.523438 42.132812 66.964844 42.515625 66.964844 42.515625 C 66.964844 42.515625 67.542969 42.097656 67.578125 42.0625 C 67.367188 42.203125 67.160156 42.359375 66.949219 42.5 C 66.828125 42.585938 66.425781 42.882812 66.339844 42.953125 C 66.164062 43.078125 65.9375 43.25 65.730469 43.410156 C 65.625 43.480469 65.207031 43.757812 65.101562 43.847656 C 65.066406 43.882812 64.492188 44.28125 64.492188 44.300781 L 65.121094 43.863281 C 64.945312 43.984375 64.683594 44.179688 64.511719 44.316406 C 64.335938 44.441406 64.039062 44.648438 63.867188 44.753906 C 63.65625 44.894531 63.464844 45.050781 63.257812 45.210938 C 63.046875 45.351562 62.839844 45.507812 62.628906 45.648438 C 62.457031 45.769531 62.175781 45.980469 62.019531 46.101562 C 61.863281 46.207031 61.53125 46.433594 61.375 46.539062 C 61.21875 46.660156 60.871094 46.90625 60.765625 46.992188 L 60.15625 47.449219 C 60.015625 47.550781 59.71875 47.761719 59.546875 47.902344 C 59.425781 47.988281 59.058594 48.25 58.902344 48.339844 C 58.726562 48.460938 58.449219 48.671875 58.292969 48.792969 C 58.046875 48.96875 57.890625 49.074219 57.664062 49.230469 C 57.648438 49.230469 57.089844 49.648438 57.054688 49.683594 C 56.984375 49.738281 56.429688 50.121094 56.429688 50.121094 C 56.445312 50.105469 57.003906 49.703125 57.039062 49.667969 C 57.074219 49.632812 57.628906 49.230469 57.648438 49.214844 C 57.628906 49.230469 57.089844 49.597656 57.003906 49.648438 C 56.882812 49.738281 56.496094 50 56.375 50.085938 C 56.167969 50.246094 55.957031 50.382812 55.765625 50.542969 C 55.628906 50.628906 55.242188 50.910156 55.121094 50.980469 C 54.929688 51.117188 54.652344 51.3125 54.511719 51.433594 C 54.355469 51.554688 54.09375 51.730469 53.902344 51.886719 C 53.746094 52.011719 53.449219 52.203125 53.292969 52.34375 C 53.1875 52.414062 52.910156 52.605469 52.753906 52.710938 C 52.960938 52.621094 53.34375 52.484375 53.34375 52.484375 C 53.34375 52.484375 52.859375 52.691406 52.683594 52.746094 C 52.839844 52.691406 53.257812 52.535156 53.363281 52.484375 C 53.554688 52.414062 53.867188 52.273438 54.058594 52.183594 C 54.214844 52.132812 54.652344 51.957031 54.773438 51.90625 C 55 51.816406 55.3125 51.679688 55.46875 51.625 L 56.167969 51.347656 C 56.21875 51.328125 56.828125 51.066406 56.882812 51.050781 C 56.984375 50.996094 57.457031 50.820312 57.578125 50.769531 C 57.628906 50.75 58.292969 50.488281 58.292969 50.488281 C 58.257812 50.507812 57.628906 50.769531 57.59375 50.769531 C 57.578125 50.769531 57.003906 51.015625 56.898438 51.050781 C 56.8125 51.082031 56.203125 51.328125 56.203125 51.347656 C 56.238281 51.328125 56.8125 51.117188 56.917969 51.066406 C 57.074219 51.015625 57.421875 50.875 57.628906 50.785156 C 57.875 50.699219 58.117188 50.59375 58.34375 50.507812 C 58.570312 50.417969 58.816406 50.316406 59.042969 50.210938 C 59.214844 50.140625 59.652344 49.964844 59.738281 49.914062 C 59.6875 49.929688 59.023438 50.191406 59.023438 50.191406 C 59.042969 50.191406 59.667969 49.929688 59.71875 49.914062 C 59.667969 49.929688 59.007812 50.191406 59.007812 50.191406 C 59.023438 50.191406 59.617188 49.949219 59.703125 49.914062 C 59.929688 49.824219 60.171875 49.71875 60.398438 49.632812 L 61.84375 49.074219 C 61.8125 49.089844 61.148438 49.351562 61.148438 49.351562 C 61.234375 49.316406 61.757812 49.125 61.863281 49.074219 C 61.96875 49.039062 62.488281 48.8125 62.558594 48.792969 C 62.648438 48.757812 63.273438 48.515625 63.273438 48.515625 L 62.578125 48.792969 C 62.734375 48.742188 63.117188 48.582031 63.292969 48.515625 C 63.5 48.425781 63.777344 48.320312 63.988281 48.234375 C 64.074219 48.199219 64.335938 48.09375 64.511719 48.023438 L 64.546875 48.023438 C 64.648438 48.023438 64.71875 48.023438 64.753906 48.023438 C 65.015625 48.023438 65.257812 48.023438 65.519531 48.023438 C 65.660156 48.023438 66.183594 48.023438 66.289062 48.023438 C 66.375 48.023438 67.035156 48.023438 67.054688 48.023438 C 67.054688 48.023438 66.320312 48.023438 66.289062 48.023438 C 66.21875 48.023438 65.539062 48.023438 65.519531 48.023438 C 65.417969 48.023438 64.753906 48.023438 64.753906 48.023438 C 64.773438 48.023438 65.46875 48.023438 65.519531 48.023438 L 67.035156 48.007812 C 67.558594 48.007812 68.0625 48.023438 68.585938 48.023438 C 68.8125 48.023438 69.179688 48.023438 69.351562 48.023438 C 69.386719 48.023438 69.457031 48.023438 69.5625 48.023438 L 69.632812 48.023438 L 69.648438 48.09375 C 69.683594 48.320312 69.71875 48.652344 69.71875 48.652344 C 69.71875 48.636719 69.667969 48.320312 69.632812 48.09375 L 69.613281 48.023438 L 69.542969 48.023438 C 69.421875 48.023438 69.335938 48.023438 69.351562 48.023438 C 69.371094 48.023438 69.441406 48.023438 69.542969 48.023438 L 69.613281 48.023438 L 69.613281 48.078125 C 69.632812 48.269531 69.683594 48.550781 69.703125 48.652344 C 69.703125 48.671875 69.824219 49.371094 69.824219 49.40625 C 69.824219 49.351562 69.71875 48.652344 69.71875 48.636719 C 69.71875 48.652344 69.824219 49.28125 69.839844 49.386719 C 69.875 49.5625 69.945312 50.050781 69.960938 50.140625 C 69.960938 50.085938 69.859375 49.386719 69.859375 49.371094 C 69.859375 49.386719 69.960938 50.015625 69.980469 50.121094 C 70.015625 50.296875 70.066406 50.648438 70.101562 50.875 C 70.101562 50.925781 70.207031 51.574219 70.207031 51.644531 C 70.222656 51.730469 70.3125 52.394531 70.3125 52.414062 L 70.277344 51.714844 C 70.292969 51.851562 70.363281 52.308594 70.378906 52.484375 C 70.398438 52.621094 70.484375 53.128906 70.503906 53.234375 C 70.539062 53.445312 70.574219 53.707031 70.625 53.949219 L 70.640625 54.019531 L 70.574219 54.054688 L 70.539062 54.074219 C 70.347656 54.160156 70.050781 54.316406 69.859375 54.40625 C 69.667969 54.492188 69.335938 54.648438 69.160156 54.738281 C 69.003906 54.808594 68.621094 55 68.480469 55.070312 C 68.289062 55.15625 67.925781 55.332031 67.785156 55.402344 C 67.679688 55.453125 67.089844 55.714844 67.089844 55.734375 C 67.105469 55.734375 67.679688 55.4375 67.769531 55.402344 C 67.820312 55.367188 68.414062 55.085938 68.445312 55.070312 C 68.253906 55.15625 67.941406 55.316406 67.75 55.402344 C 67.523438 55.507812 67.296875 55.628906 67.070312 55.734375 C 66.84375 55.839844 66.601562 55.960938 66.375 56.066406 C 66.21875 56.152344 65.835938 56.328125 65.695312 56.398438 C 65.453125 56.519531 65.226562 56.644531 65.015625 56.730469 L 64.335938 57.0625 C 64.214844 57.132812 63.832031 57.324219 63.65625 57.394531 C 63.570312 57.429688 63.03125 57.691406 62.960938 57.726562 C 62.875 57.761719 62.351562 58.007812 62.261719 58.058594 C 62.160156 58.113281 61.84375 58.269531 61.6875 58.355469 C 61.636719 58.375 61.601562 58.390625 61.585938 58.390625 C 61.339844 58.460938 61.042969 58.566406 60.851562 58.617188 C 60.75 58.652344 60.242188 58.8125 60.121094 58.847656 C 60 58.882812 59.492188 59.054688 59.40625 59.089844 C 59.199219 59.160156 58.9375 59.25 58.691406 59.335938 C 58.535156 59.386719 58.152344 59.527344 57.980469 59.582031 C 57.734375 59.648438 57.492188 59.738281 57.246094 59.808594 C 57.003906 59.894531 56.757812 59.964844 56.53125 60.050781 C 56.394531 60.085938 55.90625 60.246094 55.800781 60.28125 C 55.539062 60.367188 55.296875 60.4375 55.070312 60.507812 C 55.085938 60.507812 55.730469 60.28125 55.785156 60.261719 C 55.941406 60.210938 56.394531 60.070312 56.515625 60.035156 C 56.742188 59.964844 57.054688 59.84375 57.230469 59.789062 L 57.945312 59.546875 C 57.71875 59.617188 57.4375 59.703125 57.210938 59.773438 C 56.984375 59.84375 56.707031 59.929688 56.480469 60 C 56.304688 60.050781 55.921875 60.191406 55.765625 60.246094 C 55.503906 60.332031 55.261719 60.417969 55.050781 60.488281 C 54.824219 60.558594 54.597656 60.648438 54.339844 60.734375 C 54.078125 60.820312 53.832031 60.910156 53.625 60.980469 C 53.535156 61.015625 53.015625 61.1875 52.910156 61.222656 C 52.648438 61.3125 52.441406 61.382812 52.179688 61.449219 C 52.125 61.46875 51.464844 61.695312 51.464844 61.695312 C 51.203125 61.78125 50.976562 61.851562 50.734375 61.921875 C 50.523438 61.992188 50.210938 62.097656 50.035156 62.148438 C 50.035156 62.148438 50.019531 62.167969 50.019531 62.167969 C 49.929688 62.21875 49.375 62.570312 49.355469 62.570312 C 49.355469 62.570312 49.984375 62.167969 49.984375 62.148438 C 49.792969 62.273438 49.53125 62.429688 49.320312 62.550781 C 49.164062 62.65625 48.832031 62.882812 48.675781 62.972656 C 48.449219 63.113281 48.222656 63.269531 48.050781 63.390625 C 47.929688 63.480469 47.578125 63.707031 47.421875 63.8125 C 47.40625 63.828125 46.777344 64.214844 46.761719 64.230469 C 46.761719 64.230469 47.351562 63.828125 47.40625 63.8125 C 47.351562 63.847656 46.847656 64.160156 46.742188 64.214844 C 46.585938 64.316406 46.253906 64.546875 46.097656 64.632812 C 45.871094 64.773438 45.644531 64.929688 45.472656 65.050781 C 45.402344 65.085938 44.914062 65.417969 44.84375 65.472656 C 44.6875 65.578125 44.304688 65.804688 44.183594 65.890625 C 43.972656 66.015625 43.765625 66.152344 43.519531 66.3125 C 43.382812 66.398438 43.015625 66.625 42.859375 66.714844 C 42.71875 66.800781 42.335938 67.0625 42.230469 67.132812 C 42.179688 67.167969 42.144531 67.183594 42.09375 67.21875 C 41.988281 67.394531 41.882812 67.585938 41.796875 67.710938 L 41.394531 68.375 L 42.058594 67.183594 L 42.179688 67.097656 L 42.058594 67.167969 L 41.359375 68.355469 L 40.996094 69.019531 C 40.910156 69.179688 40.734375 69.476562 40.628906 69.683594 C 40.558594 69.808594 40.316406 70.210938 40.246094 70.347656 C 40.125 70.578125 40.003906 70.804688 39.878906 71.015625 C 39.777344 71.1875 39.601562 71.503906 39.496094 71.679688 C 39.375 71.90625 39.253906 72.117188 39.132812 72.34375 C 39.007812 72.570312 38.886719 72.78125 38.765625 73.007812 C 38.644531 73.234375 38.503906 73.460938 38.382812 73.671875 L 37.597656 75 C 37.71875 74.789062 37.859375 74.546875 37.964844 74.335938 C 38.015625 74.25 38.332031 73.671875 38.332031 73.671875 C 38.332031 73.671875 38.296875 73.742188 38.242188 73.828125 L 37.582031 74.984375 L 34.253906 74.984375 L 34.148438 74.511719 C 34.132812 74.421875 33.992188 73.777344 33.976562 73.757812 C 33.976562 73.777344 34.113281 74.476562 34.132812 74.527344 C 34.097656 74.371094 34.011719 74.003906 33.957031 73.777344 L 33.785156 73.023438 C 33.730469 72.78125 33.679688 72.535156 33.609375 72.273438 L 33.503906 71.730469 L 32.792969 71.066406 C 32.984375 71.242188 33.175781 71.398438 33.367188 71.574219 C 33.382812 71.589844 33.453125 71.644531 33.523438 71.714844 C 33.574219 71.941406 33.644531 72.21875 33.644531 72.238281 C 33.644531 72.21875 33.574219 71.921875 33.539062 71.714844 C 33.453125 71.644531 33.402344 71.574219 33.367188 71.554688 C 33.367188 71.554688 33.347656 71.539062 33.347656 71.539062 L 32.25 70.542969 L 32.214844 70.523438 C 32.148438 70.472656 31.660156 70.015625 31.640625 70.015625 C 31.660156 70.035156 32.179688 70.507812 32.214844 70.542969 C 32.128906 70.453125 31.796875 70.175781 31.640625 70.035156 C 31.484375 69.894531 31.277344 69.703125 31.066406 69.527344 C 31.03125 69.511719 30.542969 69.039062 30.492188 69.003906 C 30.351562 68.882812 30.109375 68.636719 29.917969 68.480469 C 29.8125 68.390625 29.464844 68.078125 29.34375 67.972656 C 29.203125 67.847656 28.90625 67.550781 28.765625 67.449219 C 28.609375 67.308594 28.316406 67.046875 28.191406 66.941406 C 28 66.765625 27.808594 66.609375 27.617188 66.433594 L 26.484375 65.417969 C 26.449219 65.382812 25.929688 64.914062 25.910156 64.894531 C 25.929688 64.914062 26.449219 65.367188 26.484375 65.402344 C 26.46875 65.382812 25.964844 64.914062 25.929688 64.878906 C 25.996094 64.929688 26.363281 65.261719 26.503906 65.382812 C 26.695312 65.558594 26.867188 65.714844 27.078125 65.890625 C 27.113281 65.925781 27.582031 66.363281 27.652344 66.417969 C 27.792969 66.539062 28.089844 66.800781 28.226562 66.921875 C 28.4375 67.097656 28.628906 67.273438 28.800781 67.429688 C 28.820312 67.449219 28.835938 67.464844 28.855469 67.484375 L 26.503906 65.523438 C 26.46875 65.507812 26.449219 65.472656 26.433594 65.453125 C 26.222656 65.28125 26.050781 65.105469 25.859375 64.949219 C 25.789062 64.878906 25.371094 64.511719 25.285156 64.441406 C 25.09375 64.265625 24.902344 64.089844 24.726562 63.917969 C 24.535156 63.742188 24.34375 63.582031 24.152344 63.410156 C 24.132812 63.390625 24.117188 63.375 24.082031 63.339844 C 23.90625 63.269531 23.472656 63.128906 23.453125 63.128906 C 23.210938 63.058594 22.96875 62.972656 22.722656 62.902344 C 22.550781 62.851562 22.097656 62.691406 21.992188 62.675781 C 22.042969 62.691406 22.707031 62.917969 22.722656 62.917969 C 22.707031 62.917969 22.0625 62.710938 21.992188 62.691406 C 22.042969 62.710938 22.707031 62.9375 22.722656 62.9375 C 22.707031 62.9375 22.097656 62.746094 21.992188 62.710938 C 21.765625 62.640625 21.503906 62.550781 21.261719 62.484375 C 20.773438 62.308594 20.285156 62.148438 19.796875 61.976562 C 19.847656 61.992188 20.511719 62.203125 20.527344 62.203125 C 20.511719 62.203125 19.902344 61.992188 19.796875 61.957031 C 19.710938 61.921875 19.203125 61.75 19.066406 61.714844 C 18.855469 61.644531 18.558594 61.554688 18.332031 61.484375 C 18.195312 61.433594 17.722656 61.277344 17.601562 61.242188 C 17.550781 61.222656 16.90625 60.996094 16.871094 60.996094 C 16.785156 60.960938 16.15625 60.769531 16.140625 60.769531 C 16.15625 60.769531 16.765625 60.980469 16.871094 61.015625 C 16.957031 61.050781 17.496094 61.222656 17.601562 61.257812 C 17.359375 61.171875 17.132812 61.101562 16.871094 61.03125 C 16.730469 60.980469 16.261719 60.820312 16.140625 60.785156 C 15.929688 60.71875 15.652344 60.628906 15.40625 60.542969 C 15.144531 60.453125 14.953125 60.382812 14.675781 60.296875 C 14.519531 60.246094 14.292969 60.175781 14.101562 60.121094 C 14.046875 60.085938 14.015625 60.050781 13.980469 60.015625 C 13.804688 59.859375 13.578125 59.648438 13.40625 59.492188 C 13.28125 59.386719 12.933594 59.074219 12.828125 58.984375 C 12.65625 58.847656 12.464844 58.652344 12.253906 58.480469 C 12.132812 58.375 11.820312 58.09375 11.679688 57.972656 C 11.59375 57.902344 11.175781 57.5 11.105469 57.449219 C 10.894531 57.273438 10.703125 57.097656 10.53125 56.941406 L 9.957031 56.433594 L 8.824219 55.417969 C 8.789062 55.382812 8.265625 54.914062 8.25 54.894531 C 8.265625 54.914062 8.789062 55.367188 8.824219 55.402344 C 8.769531 55.367188 8.285156 54.894531 8.25 54.878906 C 8.265625 54.894531 8.804688 55.367188 8.824219 55.382812 C 8.804688 55.367188 8.335938 54.929688 8.25 54.859375 C 8.125 54.753906 7.8125 54.457031 7.671875 54.335938 L 7.097656 53.828125 C 6.925781 53.6875 6.644531 53.425781 6.523438 53.320312 C 6.453125 53.25 5.964844 52.832031 5.949219 52.816406 C 5.84375 52.710938 5.546875 52.429688 5.375 52.289062 C 5.269531 52.183594 4.957031 51.90625 4.800781 51.765625 C 4.609375 51.589844 4.417969 51.417969 4.226562 51.242188 C 4.121094 51.136719 3.738281 50.820312 3.648438 50.734375 C 3.492188 50.59375 3.355469 50.472656 3.195312 50.332031 L 3.179688 50.316406 L 3.179688 50.296875 C 3.179688 50.246094 3.179688 50.191406 3.179688 50.121094 C 3.179688 49.859375 3.179688 49.617188 3.179688 49.351562 C 3.179688 49.25 3.179688 48.707031 3.179688 48.582031 C 3.179688 48.445312 3.195312 47.917969 3.195312 47.816406 C 3.195312 47.726562 3.214844 47.046875 3.214844 47.046875 L 3.214844 47.816406 C 3.214844 47.640625 3.230469 47.21875 3.230469 47.046875 C 3.230469 46.90625 3.230469 46.398438 3.230469 46.277344 C 3.230469 46.066406 3.230469 45.769531 3.230469 45.507812 C 3.230469 45.296875 3.230469 44.964844 3.230469 44.738281 C 3.230469 44.667969 3.230469 44.476562 3.25 44.300781 L 3.25 44.230469 L 3.300781 44.25 C 3.457031 44.285156 3.582031 44.316406 3.613281 44.316406 C 3.875 44.371094 4.136719 44.421875 4.363281 44.476562 C 4.609375 44.527344 4.851562 44.582031 5.113281 44.632812 L 6.59375 44.949219 L 8.089844 45.296875 C 8.195312 45.316406 8.316406 45.351562 8.457031 45.382812 L 8.476562 45.382812 C 8.597656 45.472656 8.734375 45.558594 8.804688 45.613281 C 8.789062 45.59375 8.648438 45.507812 8.476562 45.402344 C 8.300781 45.367188 8.125 45.332031 8.125 45.332031 C 8.125 45.332031 8.300781 45.367188 8.476562 45.417969 C 8.613281 45.507812 8.769531 45.613281 8.804688 45.648438 C 9.015625 45.785156 9.242188 45.945312 9.449219 46.066406 C 9.484375 46.101562 10.078125 46.46875 10.09375 46.46875 C 10.078125 46.46875 9.539062 46.101562 9.449219 46.050781 C 9.398438 46.015625 8.859375 45.664062 8.804688 45.628906 C 8.996094 45.75 9.242188 45.910156 9.449219 46.03125 C 9.570312 46.117188 9.992188 46.398438 10.09375 46.449219 C 10.164062 46.503906 10.652344 46.816406 10.738281 46.871094 C 10.894531 46.976562 11.261719 47.203125 11.382812 47.273438 C 11.453125 47.324219 11.941406 47.621094 12.027344 47.675781 C 12.183594 47.78125 12.550781 48.023438 12.671875 48.09375 C 12.742188 48.148438 13.230469 48.460938 13.316406 48.515625 C 13.4375 48.582031 13.875 48.863281 13.960938 48.917969 C 14.171875 49.054688 14.433594 49.230469 14.605469 49.335938 C 14.691406 49.386719 15.144531 49.683594 15.25 49.753906 C 15.371094 49.824219 15.808594 50.105469 15.894531 50.15625 L 16.539062 50.558594 C 16.644531 50.628906 17.042969 50.875 17.183594 50.960938 C 17.375 51.082031 17.636719 51.257812 17.828125 51.382812 C 17.914062 51.433594 18.019531 51.503906 18.140625 51.574219 C 18.054688 51.46875 17.984375 51.382812 17.882812 51.242188 C 17.757812 51.082031 17.53125 50.820312 17.394531 50.648438 C 17.304688 50.523438 16.992188 50.121094 16.921875 50.035156 C 16.851562 49.949219 16.523438 49.527344 16.453125 49.421875 C 16.367188 49.300781 16.035156 48.917969 15.964844 48.828125 L 15.476562 48.234375 C 15.371094 48.09375 15.128906 47.816406 14.988281 47.640625 C 14.953125 47.585938 14.554688 47.082031 14.519531 47.027344 C 14.449219 46.941406 14.136719 46.539062 14.046875 46.417969 C 13.980469 46.328125 13.628906 45.890625 13.5625 45.820312 C 13.402344 45.628906 13.246094 45.4375 13.074219 45.226562 C 13.003906 45.15625 12.671875 44.738281 12.585938 44.632812 C 12.5 44.511719 12.183594 44.109375 12.117188 44.019531 C 11.992188 43.863281 11.699219 43.496094 11.644531 43.410156 C 11.679688 43.445312 12.117188 43.984375 12.132812 44.003906 C 12.132812 44.003906 11.714844 43.460938 11.664062 43.390625 C 11.539062 43.234375 11.3125 42.953125 11.191406 42.78125 C 11.054688 42.621094 10.84375 42.34375 10.703125 42.183594 C 10.617188 42.0625 10.304688 41.679688 10.234375 41.574219 C 10.078125 41.398438 9.867188 41.117188 9.746094 40.980469 C 9.660156 40.875 9.363281 40.523438 9.257812 40.382812 C 9.136719 40.246094 8.996094 40.050781 8.875 39.894531 C 8.859375 39.84375 8.839844 39.808594 8.824219 39.773438 C 8.71875 39.546875 8.613281 39.300781 8.507812 39.074219 C 8.40625 38.828125 8.316406 38.601562 8.214844 38.355469 C 8.109375 38.128906 8.003906 37.882812 7.898438 37.65625 C 7.796875 37.414062 7.707031 37.183594 7.605469 36.941406 C 7.515625 36.75 7.378906 36.433594 7.289062 36.242188 C 7.203125 36.050781 7.0625 35.714844 6.996094 35.523438 C 6.925781 35.367188 6.734375 34.949219 6.679688 34.824219 C 6.644531 34.738281 6.417969 34.230469 6.367188 34.125 C 6.316406 34.003906 6.105469 33.515625 6.070312 33.410156 C 5.964844 33.164062 5.84375 32.902344 5.757812 32.710938 C 5.707031 32.585938 5.53125 32.183594 5.445312 32.011719 C 5.355469 31.816406 5.234375 31.503906 5.148438 31.292969 C 5.0625 31.101562 4.921875 30.785156 4.835938 30.59375 C 4.730469 30.332031 4.644531 30.140625 4.539062 29.878906 C 4.433594 29.648438 4.328125 29.40625 4.226562 29.179688 C 4.15625 29.003906 4 28.617188 3.929688 28.460938 C 3.839844 28.269531 3.683594 27.917969 3.613281 27.761719 L 2.988281 26.363281 L 2.394531 24.929688 L 2.710938 25.628906 C 2.742188 25.714844 2.96875 26.222656 3.023438 26.328125 C 3.074219 26.449219 3.285156 26.941406 3.320312 27.046875 C 3.421875 27.273438 3.546875 27.550781 3.632812 27.746094 C 3.71875 27.9375 3.839844 28.199219 3.945312 28.445312 C 4 28.550781 4.191406 29.019531 4.242188 29.160156 C 4.3125 29.335938 4.484375 29.703125 4.554688 29.859375 C 4.660156 30.105469 4.78125 30.351562 4.871094 30.558594 L 5.183594 31.257812 C 5.078125 31.015625 4.972656 30.785156 4.886719 30.542969 C 4.78125 30.296875 4.675781 30.070312 4.574219 29.84375 C 4.46875 29.597656 4.382812 29.371094 4.277344 29.125 C 4.171875 28.898438 4.066406 28.671875 3.964844 28.425781 C 3.859375 28.199219 3.753906 27.972656 3.648438 27.726562 C 3.597656 27.585938 3.40625 27.117188 3.355469 27.011719 C 3.335938 26.957031 3.058594 26.3125 3.058594 26.292969 C 3.023438 26.207031 2.742188 25.613281 2.742188 25.59375 C 2.742188 25.613281 3.003906 26.207031 3.039062 26.3125 C 3.058594 26.363281 3.335938 27.011719 3.335938 27.027344 C 3.265625 26.886719 3.09375 26.484375 3.023438 26.328125 C 2.96875 26.1875 2.777344 25.734375 2.726562 25.613281 C 2.691406 25.542969 2.464844 24.984375 2.429688 24.894531 C 2.34375 24.703125 2.1875 24.335938 2.117188 24.195312 C 2.082031 24.109375 1.820312 23.515625 1.804688 23.496094 C 1.820312 23.53125 2.097656 24.195312 2.097656 24.214844 C 2.097656 24.195312 1.804688 23.53125 1.785156 23.515625 L 1.195312 22.082031 C 1.089844 21.835938 1.003906 21.609375 0.898438 21.363281 L 0.652344 20.820312 L 0.777344 20.925781 L 0.792969 20.890625 L 1.386719 20.175781 L 1.875 19.582031 C 1.941406 19.492188 2.257812 19.109375 2.359375 18.984375 C 2.394531 18.949219 2.867188 18.410156 2.867188 18.390625 C 2.847656 18.410156 2.414062 18.949219 2.378906 18.984375 C 2.414062 18.933594 2.867188 18.425781 2.882812 18.410156 C 2.867188 18.425781 2.414062 18.984375 2.394531 19.003906 C 2.414062 18.984375 2.832031 18.496094 2.902344 18.410156 C 3.003906 18.285156 3.285156 17.953125 3.40625 17.832031 C 3.546875 17.65625 3.683594 17.484375 3.824219 17.324219 L 3.839844 17.289062 L 3.875 17.308594 L 3.964844 17.359375 C 4.136719 17.5 4.417969 17.710938 4.574219 17.832031 C 4.746094 17.972656 5.027344 18.183594 5.183594 18.285156 L 4.574219 17.816406 C 4.574219 17.816406 5.148438 18.25 5.183594 18.269531 C 5.253906 18.320312 5.757812 18.707031 5.792969 18.742188 C 6.019531 18.898438 6.210938 19.054688 6.402344 19.195312 C 6.609375 19.351562 6.800781 19.492188 7.011719 19.648438 C 7.21875 19.808594 7.414062 19.949219 7.621094 20.105469 L 8.597656 20.839844 L 8.632812 20.875 L 8.789062 21.136719 C 8.824219 21.1875 9.152344 21.800781 9.152344 21.816406 C 9.152344 21.800781 8.824219 21.242188 8.769531 21.152344 C 8.753906 21.101562 8.683594 20.996094 8.613281 20.875 L 8.613281 20.855469 L 8.597656 20.855469 C 8.441406 20.734375 8.25 20.59375 8.25 20.59375 C 8.230469 20.578125 8.421875 20.734375 8.597656 20.875 L 8.613281 20.875 L 8.613281 20.890625 C 8.703125 21.050781 8.769531 21.171875 8.769531 21.1875 C 8.769531 21.1875 8.683594 21.050781 8.597656 20.910156 L 8.597656 20.890625 L 8.578125 20.890625 C 8.40625 20.769531 8.214844 20.613281 8.230469 20.628906 C 8.265625 20.648438 8.421875 20.769531 8.5625 20.890625 C 8.632812 21.03125 8.703125 21.152344 8.71875 21.1875 C 8.839844 21.417969 8.980469 21.625 9.101562 21.851562 C 9.152344 21.921875 9.46875 22.5 9.484375 22.515625 C 9.46875 22.5 9.136719 21.886719 9.121094 21.835938 C 9.1875 21.941406 9.398438 22.324219 9.503906 22.5 C 9.605469 22.675781 9.765625 22.9375 9.886719 23.164062 C 9.902344 23.199219 10.234375 23.792969 10.25 23.847656 C 10.304688 23.933594 10.566406 24.40625 10.617188 24.527344 C 10.6875 24.648438 10.949219 25.105469 11 25.191406 C 11.121094 25.417969 11.261719 25.628906 11.382812 25.855469 C 11.503906 26.082031 11.628906 26.3125 11.75 26.539062 C 11.800781 26.625 12.0625 27.117188 12.117188 27.21875 C 12.097656 27.183594 11.730469 26.554688 11.730469 26.554688 C 11.730469 26.574219 12.046875 27.132812 12.097656 27.238281 C 12.21875 27.464844 12.339844 27.691406 12.464844 27.917969 L 13.230469 29.25 C 13.316406 29.40625 13.492188 29.703125 13.613281 29.914062 C 13.683594 30.050781 13.910156 30.4375 13.980469 30.59375 C 14.082031 30.785156 14.257812 31.082031 14.363281 31.257812 C 14.433594 31.363281 14.691406 31.851562 14.726562 31.941406 C 14.851562 32.148438 15.007812 32.429688 15.109375 32.605469 L 15.496094 33.269531 C 15.597656 33.460938 15.738281 33.707031 15.878906 33.933594 C 15.964844 34.089844 16.15625 34.421875 16.261719 34.597656 C 16.332031 34.738281 16.398438 34.859375 16.46875 35 C 16.539062 35.070312 16.609375 35.121094 16.695312 35.191406 C 16.714844 35.210938 17.238281 35.648438 17.269531 35.683594 C 17.339844 35.734375 17.847656 36.1875 17.847656 36.1875 C 17.847656 36.1875 17.339844 35.769531 17.269531 35.699219 C 17.148438 35.59375 16.75 35.261719 16.695312 35.210938 C 16.730469 35.246094 17.269531 35.714844 17.269531 35.714844 C 17.253906 35.699219 16.695312 35.246094 16.679688 35.226562 C 16.695312 35.246094 17.21875 35.699219 17.253906 35.734375 C 17.636719 36.066406 18.039062 36.382812 18.421875 36.714844 C 18.578125 36.851562 18.890625 37.117188 18.996094 37.203125 C 19.066406 37.273438 19.570312 37.675781 19.570312 37.691406 C 19.570312 37.691406 19.011719 37.203125 18.996094 37.183594 C 19.101562 37.273438 19.464844 37.570312 19.570312 37.675781 C 19.726562 37.816406 20.007812 38.058594 20.144531 38.183594 C 20.371094 38.375 20.492188 38.480469 20.71875 38.671875 C 20.875 38.792969 21.136719 39.039062 21.296875 39.179688 C 21.398438 39.265625 21.78125 39.597656 21.871094 39.667969 C 22.078125 39.84375 22.253906 39.984375 22.445312 40.15625 L 22.671875 40.367188 L 22.515625 40.015625 C 22.53125 40.035156 22.601562 40.210938 22.671875 40.367188 L 22.6875 40.382812 C 22.601562 40.191406 22.53125 40 22.515625 40 C 22.515625 40.015625 22.617188 40.210938 22.707031 40.402344 L 22.722656 40.417969 C 22.652344 40.246094 22.566406 40.035156 22.53125 39.984375 C 22.445312 39.789062 22.304688 39.476562 22.21875 39.265625 L 21.574219 37.882812 L 21.261719 37.183594 C 21.191406 37.046875 21.035156 36.679688 20.945312 36.484375 C 20.910156 36.417969 20.667969 35.839844 20.632812 35.769531 C 20.597656 35.664062 20.371094 35.191406 20.320312 35.050781 C 20.265625 34.929688 20.039062 34.457031 20.007812 34.351562 C 19.972656 34.285156 19.726562 33.757812 19.691406 33.652344 C 19.621094 33.496094 19.429688 33.058594 19.378906 32.9375 C 19.34375 32.832031 19.117188 32.359375 19.066406 32.21875 C 19.011719 32.097656 18.785156 31.625 18.75 31.519531 C 18.71875 31.433594 18.472656 30.925781 18.4375 30.820312 C 18.351562 30.613281 18.210938 30.316406 18.125 30.105469 C 18.039062 29.894531 17.914062 29.617188 17.8125 29.386719 C 17.707031 29.160156 17.601562 28.933594 17.496094 28.6875 C 17.394531 28.460938 17.289062 28.234375 17.183594 27.988281 C 17.078125 27.761719 16.976562 27.515625 16.871094 27.273438 C 16.765625 27.046875 16.660156 26.800781 16.558594 26.574219 C 16.539062 26.519531 16.242188 25.875 16.242188 25.855469 C 16.242188 25.875 16.523438 26.449219 16.558594 26.554688 C 16.625 26.714844 16.835938 27.183594 16.871094 27.253906 C 16.851562 27.203125 16.574219 26.554688 16.558594 26.539062 C 16.453125 26.3125 16.347656 26.082031 16.242188 25.839844 C 16.207031 25.75 15.929688 25.15625 15.929688 25.140625 C 15.949219 25.15625 16.226562 25.804688 16.242188 25.855469 C 16.207031 25.785156 16 25.316406 15.929688 25.15625 C 15.894531 25.070312 15.617188 24.476562 15.617188 24.457031 C 15.617188 24.476562 15.914062 25.121094 15.929688 25.175781 C 15.914062 25.121094 15.652344 24.582031 15.617188 24.476562 C 15.511719 24.25 15.40625 24.003906 15.304688 23.757812 C 15.199219 23.53125 15.09375 23.285156 14.988281 23.042969 C 14.953125 22.988281 14.675781 22.359375 14.675781 22.34375 C 14.640625 22.238281 14.378906 21.644531 14.363281 21.625 C 14.363281 21.644531 14.640625 22.21875 14.675781 22.324219 C 14.761719 22.5 14.953125 22.917969 14.988281 23.023438 C 15.023438 23.113281 15.304688 23.707031 15.304688 23.722656 C 15.304688 23.707031 15.007812 23.058594 14.988281 23.007812 C 15.007812 23.058594 15.269531 23.601562 15.304688 23.707031 C 15.285156 23.652344 15.007812 23.007812 14.988281 22.988281 C 14.886719 22.761719 14.78125 22.535156 14.675781 22.289062 C 14.640625 22.203125 14.363281 21.609375 14.363281 21.589844 C 14.363281 21.609375 14.660156 22.253906 14.675781 22.308594 C 14.605469 22.167969 14.449219 21.816406 14.363281 21.609375 L 14.046875 20.910156 C 13.980469 20.769531 13.824219 20.417969 13.734375 20.210938 C 13.71875 20.191406 13.421875 19.511719 13.421875 19.492188 C 13.421875 19.492188 13.734375 20.15625 13.734375 20.191406 C 13.699219 20.105469 13.472656 19.597656 13.421875 19.476562 C 13.316406 19.25 13.210938 19.019531 13.109375 18.777344 C 13.003906 18.550781 12.898438 18.304688 12.792969 18.058594 C 12.691406 17.832031 12.585938 17.585938 12.480469 17.359375 C 12.375 17.117188 12.273438 16.886719 12.167969 16.644531 C 12.082031 16.449219 11.941406 16.136719 11.855469 15.945312 C 11.800781 15.820312 11.59375 15.332031 11.539062 15.226562 C 11.4375 15 11.296875 14.71875 11.226562 14.527344 C 11.121094 14.300781 11.019531 14.054688 10.914062 13.828125 C 10.808594 13.601562 10.703125 13.355469 10.601562 13.128906 C 10.496094 12.902344 10.390625 12.65625 10.285156 12.429688 C 10.234375 12.308594 10.042969 11.886719 9.972656 11.730469 C 9.972656 11.714844 9.9375 11.660156 9.886719 11.539062 L 10.007812 11.730469 L 10.007812 11.714844 C 10.007812 11.554688 10.007812 11.152344 10.007812 11.152344 C 10.007812 11.152344 10.007812 11.484375 10.007812 11.714844 L 10.007812 11.75 C 10.058594 11.871094 10.09375 11.941406 10.09375 11.921875 C 10.078125 11.886719 10.058594 11.835938 10.007812 11.75 L 10.007812 11.714844 C 10.007812 11.519531 10.007812 11.257812 10.007812 11.136719 C 10.007812 10.925781 10.007812 10.613281 10.007812 10.367188 C 10.007812 10.175781 10.007812 9.808594 10.007812 9.597656 C 10.007812 9.457031 10.007812 8.949219 10.007812 8.828125 C 10.007812 8.566406 10.007812 8.339844 10.007812 8.058594 C 10.007812 7.78125 10.007812 7.535156 10.007812 7.289062 C 10.007812 7.027344 10.007812 6.785156 10.007812 6.519531 C 10.007812 6.46875 10.007812 5.785156 10.007812 5.75 C 10.007812 5.683594 10.007812 5.316406 10.007812 5.121094 L 10.007812 5.015625 L 10.113281 5.015625 C 10.199219 5.015625 10.25 5.015625 10.25 5.015625 C 10.25 5.015625 10.199219 5.015625 10.113281 5.015625 L 10.007812 5.035156 L 10.007812 5.121094 C 10.007812 5.316406 10.007812 5.664062 10.007812 5.75 C 10.007812 5.910156 10.007812 6.449219 10.007812 6.519531 C 10.007812 6.46875 10.007812 5.75 10.007812 5.75 C 10.007812 5.769531 10.007812 6.484375 10.007812 6.519531 C 10.007812 6.503906 10.007812 5.804688 10.007812 5.75 L 10.007812 5.085938 L 10.234375 5.085938 C 10.339844 5.085938 10.859375 5.070312 11 5.070312 C 11.140625 5.070312 11.664062 5.070312 11.765625 5.070312 C 11.835938 5.070312 12.480469 5.070312 12.535156 5.070312 C 12.761719 5.070312 13.125 5.050781 13.300781 5.050781 L 14.066406 5.035156 C 14.273438 5.035156 14.554688 5.015625 14.832031 5.015625 C 14.917969 5.015625 15.476562 5.015625 15.597656 5.015625 C 15.738281 5.015625 16.242188 5 16.367188 5 C 16.539062 5 16.90625 4.984375 17.132812 4.984375 C 17.203125 4.984375 17.289062 4.984375 17.375 4.984375 L 17.410156 4.984375 L 17.429688 5 C 17.566406 5.121094 17.722656 5.261719 17.828125 5.351562 C 18.019531 5.507812 18.210938 5.683594 18.402344 5.839844 C 18.59375 6.015625 18.785156 6.1875 18.976562 6.347656 C 19.117188 6.46875 19.429688 6.730469 19.554688 6.835938 C 19.726562 6.976562 20.007812 7.238281 20.128906 7.34375 C 20.230469 7.429688 20.582031 7.746094 20.703125 7.851562 C 20.894531 8.023438 21.085938 8.199219 21.277344 8.355469 C 21.382812 8.445312 21.765625 8.777344 21.851562 8.847656 C 21.9375 8.917969 22.324219 9.25 22.425781 9.335938 C 22.53125 9.421875 22.933594 9.773438 23.003906 9.84375 C 23.070312 9.894531 23.488281 10.28125 23.578125 10.351562 C 23.664062 10.417969 23.941406 10.648438 24.082031 10.769531 L 24.097656 10.785156 L 24.097656 10.804688 C 24.117188 10.855469 24.132812 10.890625 24.132812 10.910156 C 24.238281 11.152344 24.34375 11.433594 24.429688 11.625 C 24.464844 11.695312 24.691406 12.253906 24.726562 12.34375 C 24.796875 12.5 24.96875 12.917969 25.023438 13.042969 L 25.320312 13.742188 C 25.40625 13.933594 25.5625 14.316406 25.613281 14.441406 C 25.648438 14.527344 25.910156 15.121094 25.910156 15.140625 C 25.910156 15.140625 26.171875 15.769531 26.207031 15.855469 C 26.277344 16.050781 26.417969 16.382812 26.503906 16.574219 C 26.609375 16.800781 26.695312 17.046875 26.800781 17.273438 C 26.902344 17.5 26.992188 17.746094 27.09375 17.972656 C 27.148438 18.09375 27.339844 18.601562 27.390625 18.6875 C 27.496094 18.933594 27.601562 19.195312 27.6875 19.386719 C 27.792969 19.617188 27.878906 19.859375 27.984375 20.085938 L 28.28125 20.785156 C 28.316406 20.890625 28.523438 21.363281 28.574219 21.484375 C 28.628906 21.609375 28.820312 22.097656 28.871094 22.203125 C 28.941406 22.378906 29.117188 22.832031 29.167969 22.917969 C 29.152344 22.867188 28.871094 22.238281 28.871094 22.21875 C 28.871094 22.21875 29.117188 22.851562 29.167969 22.9375 C 29.238281 23.128906 29.359375 23.425781 29.464844 23.652344 C 29.550781 23.847656 29.671875 24.160156 29.761719 24.351562 C 29.828125 24.527344 29.988281 24.929688 30.054688 25.070312 C 30.144531 25.28125 30.28125 25.613281 30.351562 25.769531 L 30.648438 26.46875 C 30.734375 26.679688 30.839844 26.921875 30.945312 27.167969 C 31.015625 27.308594 31.171875 27.710938 31.242188 27.867188 C 31.328125 28.058594 31.449219 28.390625 31.535156 28.582031 C 31.660156 28.847656 31.730469 29.019531 31.832031 29.285156 C 31.9375 29.527344 32.023438 29.773438 32.128906 30 L 32.460938 30.699219 C 32.546875 30.875 32.738281 31.3125 32.792969 31.398438 C 32.773438 31.347656 32.460938 30.734375 32.460938 30.714844 C 32.460938 30.734375 32.757812 31.347656 32.792969 31.417969 C 32.84375 31.519531 33.050781 31.976562 33.121094 32.117188 L 33.453125 32.796875 C 33.488281 32.882812 33.785156 33.460938 33.785156 33.480469 C 33.785156 33.460938 33.46875 32.796875 33.453125 32.78125 C 33.503906 32.867188 33.730469 33.339844 33.785156 33.460938 C 33.886719 33.6875 34.011719 33.933594 34.113281 34.160156 C 34.238281 34.386719 34.339844 34.617188 34.445312 34.84375 C 34.515625 35 34.707031 35.402344 34.777344 35.542969 C 34.882812 35.75 35.039062 36.066406 35.109375 36.222656 C 35.144531 36.292969 35.402344 36.835938 35.4375 36.90625 C 35.527344 37.097656 35.699219 37.464844 35.769531 37.605469 C 35.875 37.832031 35.996094 38.078125 36.101562 38.304688 C 36.152344 38.410156 36.363281 38.863281 36.433594 39.003906 C 36.484375 39.109375 36.726562 39.597656 36.761719 39.683594 C 36.796875 39.773438 37.09375 40.351562 37.09375 40.367188 C 37.09375 40.351562 36.796875 39.738281 36.761719 39.667969 C 36.851562 39.84375 37.007812 40.15625 37.09375 40.351562 C 37.109375 40.402344 37.164062 40.507812 37.214844 40.613281 C 37.214844 40.472656 37.234375 40.332031 37.234375 40.175781 C 37.25 39.894531 37.269531 39.648438 37.269531 39.40625 C 37.285156 39.144531 37.300781 38.898438 37.300781 38.636719 C 37.320312 38.375 37.335938 38.113281 37.335938 37.867188 C 37.335938 37.816406 37.355469 37.117188 37.355469 37.097656 C 37.355469 37.117188 37.320312 37.761719 37.320312 37.867188 C 37.320312 38.023438 37.285156 38.601562 37.285156 38.636719 C 37.285156 38.6875 37.25 39.386719 37.25 39.40625 C 37.25 39.386719 37.269531 38.742188 37.269531 38.636719 C 37.269531 38.390625 37.285156 38.113281 37.285156 37.867188 L 37.371094 36.3125 C 37.371094 36.171875 37.40625 35.734375 37.40625 35.542969 C 37.425781 35.296875 37.441406 35.015625 37.441406 34.773438 C 37.460938 34.511719 37.460938 34.265625 37.460938 34.003906 C 37.460938 33.757812 37.476562 33.496094 37.476562 33.234375 C 37.496094 33.007812 37.511719 32.675781 37.511719 32.464844 C 37.527344 32.203125 37.527344 31.957031 37.527344 31.695312 C 37.546875 31.484375 37.5625 31.117188 37.5625 30.925781 C 37.5625 30.734375 37.582031 30.351562 37.582031 30.15625 C 37.597656 29.964844 37.617188 29.527344 37.617188 29.386719 C 37.617188 29.300781 37.652344 28.722656 37.652344 28.617188 C 37.652344 28.480469 37.667969 27.953125 37.667969 27.851562 C 37.6875 27.585938 37.703125 27.289062 37.703125 27.082031 C 37.703125 26.992188 37.738281 26.398438 37.738281 26.3125 C 37.738281 26.242188 37.753906 25.558594 37.753906 25.542969 C 37.753906 25.558594 37.71875 26.257812 37.71875 26.3125 C 37.71875 26.207031 37.738281 25.734375 37.738281 25.542969 C 37.738281 25.351562 37.753906 25.015625 37.753906 24.773438 C 37.753906 24.648438 37.789062 24.144531 37.789062 24.003906 C 37.789062 23.742188 37.808594 23.496094 37.808594 23.234375 C 37.808594 23.183594 37.84375 22.484375 37.84375 22.464844 C 37.84375 22.484375 37.824219 23.183594 37.824219 23.234375 C 37.824219 23.199219 37.859375 22.585938 37.859375 22.464844 C 37.878906 22.308594 37.894531 21.871094 37.894531 21.695312 C 37.894531 21.554688 37.914062 21.050781 37.914062 20.925781 C 37.914062 20.839844 37.929688 20.261719 37.929688 20.15625 C 37.945312 19.984375 37.964844 19.527344 37.964844 19.386719 C 37.964844 19.316406 38 18.6875 38 18.617188 C 38 18.425781 38.015625 18.007812 38.015625 17.851562 C 38.015625 17.585938 38.035156 17.34375 38.035156 17.082031 C 38.035156 16.871094 38.050781 16.589844 38.050781 16.3125 C 38.050781 16.222656 38.085938 15.664062 38.085938 15.542969 C 38.085938 15.402344 38.105469 14.894531 38.105469 14.773438 C 38.121094 14.511719 38.121094 14.265625 38.121094 14.003906 C 38.140625 13.742188 38.15625 13.480469 38.15625 13.234375 C 38.15625 13.148438 38.191406 12.464844 38.191406 12.464844 C 38.191406 12.484375 38.171875 13.199219 38.171875 13.234375 C 38.171875 13.09375 38.207031 12.640625 38.207031 12.464844 C 38.207031 12.253906 38.226562 11.921875 38.226562 11.695312 C 38.242188 11.449219 38.261719 11.171875 38.261719 10.925781 C 38.277344 10.648438 38.296875 10.4375 38.296875 10.15625 C 38.296875 9.914062 38.3125 9.632812 38.3125 9.386719 C 38.332031 9.144531 38.347656 8.863281 38.347656 8.617188 C 38.347656 8.355469 38.363281 8.113281 38.363281 7.851562 C 38.382812 7.691406 38.398438 7.21875 38.398438 7.082031 C 38.398438 6.976562 38.398438 6.871094 38.417969 6.75 L 38.417969 6.730469 L 38.433594 6.714844 C 38.523438 6.574219 38.625 6.433594 38.679688 6.347656 C 38.816406 6.136719 38.976562 5.925781 39.113281 5.714844 C 39.253906 5.507812 39.394531 5.296875 39.550781 5.085938 C 39.621094 4.984375 39.898438 4.597656 39.984375 4.457031 C 40.125 4.265625 40.296875 4.019531 40.4375 3.828125 C 40.402344 3.863281 40.003906 4.457031 40.003906 4.457031 C 40.003906 4.457031 40.386719 3.917969 40.457031 3.828125 C 40.558594 3.6875 40.769531 3.390625 40.910156 3.199219 C 40.996094 3.058594 41.238281 2.726562 41.34375 2.570312 C 41.429688 2.464844 41.726562 2.027344 41.796875 1.941406 C 41.847656 1.851562 42.214844 1.328125 42.230469 1.3125 C 42.230469 1.3125 41.8125 1.90625 41.777344 1.941406 C 41.675781 2.082031 41.429688 2.429688 41.34375 2.570312 C 41.167969 2.816406 41.046875 2.972656 40.890625 3.199219 C 40.785156 3.339844 40.542969 3.671875 40.4375 3.828125 C 40.558594 3.652344 40.75 3.375 40.875 3.199219 C 41.03125 2.972656 41.167969 2.796875 41.328125 2.570312 C 41.464844 2.378906 41.621094 2.148438 41.761719 1.941406 C 41.917969 1.730469 42.058594 1.519531 42.214844 1.3125 C 42.355469 1.101562 42.511719 0.890625 42.648438 0.683594 C 42.789062 0.472656 42.945312 0.261719 43.101562 0.0507812 L 43.136719 0 L 43.191406 0 C 43.453125 0.015625 43.695312 0.015625 43.957031 0.0351562 C 44.21875 0.0507812 44.480469 0.0703125 44.722656 0.0859375 C 44.984375 0.105469 45.246094 0.121094 45.488281 0.140625 C 45.628906 0.140625 46.132812 0.175781 46.253906 0.175781 C 46.324219 0.175781 46.953125 0.210938 47.023438 0.210938 C 47.25 0.226562 47.613281 0.246094 47.789062 0.261719 C 48.015625 0.28125 48.292969 0.296875 48.554688 0.316406 C 48.605469 0.316406 48.660156 0.316406 48.730469 0.332031 L 48.800781 0.332031 L 48.800781 0.402344 C 48.816406 0.59375 48.851562 0.855469 48.867188 0.996094 C 48.886719 1.066406 48.957031 1.730469 48.957031 1.75 C 48.972656 1.851562 49.042969 2.515625 49.042969 2.515625 C 49.042969 2.5 48.957031 1.800781 48.957031 1.765625 C 48.957031 1.835938 49.027344 2.429688 49.042969 2.535156 L 49.234375 4.054688 L 49.320312 4.808594 C 49.355469 5.035156 49.390625 5.296875 49.410156 5.558594 C 49.425781 5.714844 49.476562 6.136719 49.496094 6.3125 C 49.511719 6.519531 49.546875 6.871094 49.582031 7.082031 C 49.617188 7.378906 49.636719 7.550781 49.667969 7.832031 C 49.703125 8.09375 49.722656 8.339844 49.757812 8.601562 C 49.773438 8.6875 49.84375 9.351562 49.84375 9.371094 C 49.84375 9.335938 49.757812 8.636719 49.757812 8.617188 C 49.757812 8.636719 49.828125 9.371094 49.84375 9.386719 C 49.84375 9.371094 49.757812 8.652344 49.757812 8.636719 C 49.757812 8.652344 49.828125 9.371094 49.84375 9.40625 L 49.863281 9.492188 L 49.863281 9.527344 L 49.582031 10.925781 C 49.546875 11.117188 49.476562 11.417969 49.425781 11.679688 C 49.410156 11.785156 49.285156 12.289062 49.25 12.429688 C 49.199219 12.675781 49.148438 12.9375 49.09375 13.183594 C 49.042969 13.425781 48.992188 13.6875 48.9375 13.933594 C 48.902344 14.054688 48.800781 14.597656 48.765625 14.683594 C 48.710938 14.949219 48.660156 15.226562 48.605469 15.4375 L 48.449219 16.1875 C 48.433594 16.3125 48.328125 16.765625 48.292969 16.941406 C 48.277344 17.046875 48.136719 17.605469 48.121094 17.691406 C 48.101562 17.78125 47.980469 18.355469 47.945312 18.445312 C 47.929688 18.515625 47.789062 19.195312 47.789062 19.195312 C 47.753906 19.351562 47.667969 19.773438 47.613281 19.949219 C 47.578125 20.15625 47.511719 20.488281 47.457031 20.699219 C 47.40625 20.960938 47.351562 21.1875 47.285156 21.449219 C 47.230469 21.679688 47.179688 21.957031 47.125 22.203125 C 47.074219 22.449219 47.023438 22.710938 46.953125 22.953125 C 46.898438 23.199219 46.847656 23.460938 46.777344 23.707031 C 46.742188 23.847656 46.65625 24.335938 46.621094 24.457031 C 46.605469 24.546875 46.5 25.105469 46.464844 25.210938 C 46.429688 25.382812 46.324219 25.839844 46.289062 25.960938 C 46.273438 26.015625 46.132812 26.679688 46.117188 26.714844 C 46.097656 26.800781 45.976562 27.449219 45.960938 27.464844 C 45.960938 27.449219 46.117188 26.75 46.132812 26.714844 C 46.117188 26.765625 46.011719 27.324219 45.976562 27.464844 C 45.941406 27.65625 45.871094 27.988281 45.820312 28.21875 C 45.804688 28.339844 45.769531 28.515625 45.734375 28.707031 C 45.734375 28.792969 45.734375 28.882812 45.714844 28.949219 C 45.714844 29.003906 45.664062 29.667969 45.664062 29.71875 C 45.644531 29.914062 45.628906 30.246094 45.613281 30.488281 C 45.613281 30.628906 45.59375 31.082031 45.578125 31.257812 C 45.558594 31.503906 45.542969 31.785156 45.523438 32.027344 C 45.523438 31.886719 45.558594 31.382812 45.558594 31.257812 C 45.578125 30.996094 45.578125 30.769531 45.59375 30.488281 C 45.558594 30.996094 45.523438 31.519531 45.488281 32.046875 C 45.472656 32.289062 45.472656 32.550781 45.453125 32.816406 C 45.4375 32.972656 45.417969 33.445312 45.402344 33.582031 C 45.402344 33.722656 45.386719 33.882812 45.386719 34.019531 C 45.4375 34.125 45.472656 34.214844 45.507812 34.285156 C 45.59375 34.457031 45.714844 34.753906 45.820312 34.984375 C 45.90625 35.175781 46.046875 35.472656 46.132812 35.683594 C 46.152344 35.71875 46.167969 35.75 46.167969 35.769531 C 46.253906 35.664062 46.324219 35.578125 46.394531 35.507812 C 46.570312 35.28125 46.691406 35.140625 46.867188 34.914062 C 46.933594 34.824219 47.300781 34.386719 47.371094 34.316406 C 47.527344 34.125 47.703125 33.917969 47.875 33.722656 C 47.929688 33.652344 48.292969 33.21875 48.382812 33.128906 C 48.484375 33.007812 48.78125 32.621094 48.851562 32.535156 L 49.320312 31.941406 C 49.339844 31.921875 49.355469 31.90625 49.375 31.871094 C 49.460938 31.730469 49.601562 31.449219 49.6875 31.292969 C 49.773438 31.136719 49.984375 30.785156 50.070312 30.628906 C 50.140625 30.488281 50.367188 30.085938 50.4375 29.964844 C 50.558594 29.753906 50.734375 29.457031 50.820312 29.300781 C 50.890625 29.179688 51.117188 28.777344 51.203125 28.636719 C 51.308594 28.445312 51.464844 28.164062 51.570312 27.972656 C 51.671875 27.78125 51.847656 27.484375 51.953125 27.308594 C 52.003906 27.21875 52.28125 26.695312 52.316406 26.644531 C 52.371094 26.554688 52.699219 25.980469 52.699219 25.980469 C 52.699219 25.996094 52.351562 26.609375 52.335938 26.644531 C 52.335938 26.625 52.683594 26.03125 52.71875 25.980469 C 52.769531 25.875 53.03125 25.402344 53.082031 25.316406 C 53.136719 25.210938 53.378906 24.773438 53.449219 24.648438 C 53.484375 24.582031 53.816406 24.019531 53.832031 23.984375 C 53.886719 23.898438 54.199219 23.320312 54.199219 23.320312 C 54.199219 23.320312 53.832031 23.949219 53.816406 23.984375 C 53.9375 23.757812 54.058594 23.550781 54.179688 23.320312 C 54.25 23.199219 54.511719 22.746094 54.566406 22.65625 C 54.667969 22.484375 54.894531 22.082031 54.949219 21.992188 C 54.914062 22.046875 54.582031 22.65625 54.582031 22.65625 C 54.582031 22.65625 54.949219 22.027344 54.964844 21.992188 C 55.035156 21.851562 55.277344 21.433594 55.332031 21.328125 C 55.367188 21.242188 55.695312 20.664062 55.695312 20.664062 L 55.3125 21.328125 C 55.382812 21.207031 55.59375 20.804688 55.679688 20.664062 C 55.785156 20.472656 55.957031 20.175781 56.0625 20 C 56.183594 19.773438 56.304688 19.5625 56.429688 19.335938 C 56.550781 19.109375 56.691406 18.882812 56.8125 18.671875 C 56.917969 18.480469 57.074219 18.183594 57.175781 18.007812 C 57.246094 17.882812 57.507812 17.429688 57.5625 17.34375 C 57.683594 17.132812 57.839844 16.835938 57.925781 16.679688 C 58.046875 16.449219 58.171875 16.222656 58.292969 16.015625 C 58.34375 15.910156 58.570312 15.488281 58.65625 15.351562 C 58.78125 15.15625 58.917969 14.878906 59.042969 14.683594 C 59.09375 14.582031 59.371094 14.074219 59.40625 14.019531 C 59.460938 13.933594 59.789062 13.355469 59.789062 13.355469 L 59.425781 14.019531 C 59.511719 13.863281 59.703125 13.515625 59.808594 13.355469 C 59.914062 13.164062 60.070312 12.867188 60.171875 12.691406 C 60.3125 12.429688 60.417969 12.273438 60.554688 12.027344 C 60.660156 11.851562 60.816406 11.539062 60.921875 11.363281 C 60.992188 11.242188 61.253906 10.785156 61.304688 10.699219 C 61.359375 10.613281 61.636719 10.121094 61.6875 10.035156 C 61.777344 9.878906 61.984375 9.476562 62.054688 9.371094 L 62.421875 8.707031 C 62.472656 8.617188 62.714844 8.148438 62.785156 8.042969 C 62.90625 7.816406 63.046875 7.585938 63.167969 7.378906 C 63.257812 7.238281 63.359375 7.011719 63.464844 6.835938 L 63.484375 6.785156 L 63.535156 6.765625 C 63.585938 6.75 63.640625 6.75 63.691406 6.730469 C 63.9375 6.695312 64.25 6.644531 64.457031 6.609375 C 64.738281 6.554688 64.980469 6.519531 65.226562 6.484375 C 65.328125 6.46875 65.871094 6.382812 65.992188 6.363281 C 66.128906 6.347656 66.636719 6.242188 66.738281 6.222656 C 66.984375 6.171875 67.246094 6.136719 67.488281 6.082031 C 67.578125 6.066406 68.117188 5.960938 68.238281 5.945312 C 68.394531 5.925781 68.882812 5.839844 69.003906 5.820312 C 69.074219 5.804688 69.703125 5.699219 69.769531 5.699219 C 69.996094 5.664062 70.347656 5.59375 70.519531 5.558594 L 70.992188 5.472656 L 71.078125 5.453125 L 71.113281 5.542969 L 71.21875 5.804688 C 71.25 5.910156 71.441406 6.382812 71.496094 6.519531 C 71.53125 6.644531 71.722656 7.148438 71.757812 7.253906 C 71.792969 7.34375 71.984375 7.882812 72.019531 7.988281 C 72.105469 8.234375 72.191406 8.460938 72.296875 8.707031 C 72.382812 8.949219 72.472656 9.195312 72.558594 9.441406 C 72.628906 9.617188 72.765625 10 72.835938 10.15625 C 72.90625 10.367188 73.046875 10.734375 73.097656 10.890625 C 73.132812 10.980469 73.324219 11.519531 73.359375 11.625 C 73.375 11.695312 73.464844 11.90625 73.535156 12.082031 Z M 18.523438 61.46875 L 18.195312 61.363281 C 18.265625 61.382812 18.316406 61.398438 18.367188 61.417969 C 18.367188 61.433594 18.4375 61.449219 18.523438 61.46875 Z M 30.925781 69.546875 L 29.777344 68.496094 C 29.796875 68.515625 29.8125 68.53125 29.828125 68.550781 C 29.882812 68.582031 30.371094 69.054688 30.386719 69.074219 C 30.457031 69.125 30.945312 69.582031 30.960938 69.582031 C 30.960938 69.582031 30.945312 69.5625 30.925781 69.546875 Z M 51.324219 43.285156 C 51.324219 43.285156 51.324219 43.269531 51.324219 43.285156 C 51.324219 43.269531 51.324219 43.285156 51.324219 43.285156 Z M 33.382812 71.816406 C 33.382812 71.816406 33.402344 71.816406 33.382812 71.816406 Z M 25.980469 15.140625 C 25.875 14.894531 25.789062 14.683594 25.683594 14.441406 C 25.703125 14.476562 25.980469 15.140625 25.980469 15.140625 C 25.980469 15.15625 26.242188 15.804688 26.277344 15.855469 C 26.242188 15.785156 26.015625 15.226562 25.980469 15.140625 Z M 12.898438 28.550781 C 12.898438 28.550781 12.585938 27.953125 12.535156 27.867188 C 12.515625 27.832031 12.183594 27.273438 12.148438 27.203125 C 12.203125 27.289062 12.480469 27.816406 12.515625 27.882812 C 12.566406 27.972656 12.898438 28.550781 12.898438 28.550781 Z M 1.90625 23.652344 C 1.941406 23.722656 2.203125 24.316406 2.222656 24.351562 C 2.203125 24.300781 1.925781 23.652344 1.925781 23.636719 C 1.890625 23.566406 1.628906 22.972656 1.613281 22.9375 C 1.613281 22.9375 1.890625 23.601562 1.90625 23.652344 Z M 6.054688 52.78125 C 6.246094 52.953125 6.4375 53.113281 6.628906 53.285156 C 6.609375 53.269531 6.070312 52.761719 6.054688 52.761719 C 6.019531 52.726562 5.496094 52.273438 5.480469 52.253906 C 5.496094 52.253906 6.019531 52.746094 6.054688 52.78125 Z M 40.125 70.402344 C 40.140625 70.382812 40.507812 69.753906 40.523438 69.738281 C 40.507812 69.753906 40.160156 70.382812 40.160156 70.402344 C 40.175781 70.382812 40.523438 69.789062 40.542969 69.738281 C 40.785156 69.300781 41.046875 68.847656 41.292969 68.390625 C 41.03125 68.847656 40.769531 69.285156 40.507812 69.738281 C 40.472656 69.789062 40.140625 70.382812 40.125 70.402344 Z M 45.996094 33.742188 C 45.996094 33.792969 45.976562 34.003906 45.976562 34.195312 C 45.976562 34.195312 45.976562 34.195312 45.976562 34.179688 L 45.976562 34.230469 C 45.976562 34.230469 45.976562 34.214844 45.976562 34.214844 C 46.03125 34.335938 46.0625 34.421875 46.0625 34.421875 C 46.0625 34.421875 46.03125 34.335938 45.976562 34.195312 C 45.996094 34.003906 46.011719 33.757812 45.996094 33.742188 C 46.011719 33.601562 46.046875 33.058594 46.046875 32.972656 C 46.0625 32.710938 46.0625 32.464844 46.082031 32.203125 C 46.082031 32.308594 46.03125 32.917969 46.03125 32.972656 C 46.011719 33.234375 45.996094 33.515625 45.996094 33.742188 Z M 45.960938 34.230469 C 45.960938 34.214844 45.960938 34.214844 45.960938 34.195312 C 45.960938 34.195312 45.960938 34.179688 45.941406 34.179688 Z M 48.257812 19.351562 C 48.3125 19.089844 48.363281 18.863281 48.414062 18.601562 C 48.414062 18.636719 48.242188 19.351562 48.242188 19.351562 L 48.085938 20.105469 C 48.085938 20.105469 48.242188 19.40625 48.257812 19.351562 Z M 48.257812 19.351562 " fill-opacity="0.7373" fill-rule="nonzero"/></g></svg>