<svg xmlns="http://www.w3.org/2000/svg" xmlns:xlink="http://www.w3.org/1999/xlink" width="100" zoomAndPan="magnify" viewBox="0 0 75 74.999997" height="100" preserveAspectRatio="xMidYMid meet" version="1.0"><defs><filter x="0%" y="0%" width="100%" height="100%" id="44d9084961"><feColorMatrix values="0 0 0 0 1 0 0 0 0 1 0 0 0 0 1 0 0 0 1 0" color-interpolation-filters="sRGB"/></filter><clipPath id="7aa4eb7b77"><path d="M 0 3.136719 L 75 3.136719 L 75 72.136719 L 0 72.136719 Z M 0 3.136719 " clip-rule="nonzero"/></clipPath><mask id="5b07c69f24"><g filter="url(#44d9084961)"><rect x="-7.5" width="90" fill="#000000" y="-7.5" height="89.999996" fill-opacity="0.7686"/></g></mask><clipPath id="67f44dcb5e"><path d="M 0 0.136719 L 75 0.136719 L 75 69.136719 L 0 69.136719 Z M 0 0.136719 " clip-rule="nonzero"/></clipPath><clipPath id="59157212cc"><rect x="0" width="75" y="0" height="70"/></clipPath></defs><g clip-path="url(#7aa4eb7b77)"><g mask="url(#5b07c69f24)"><g transform="matrix(1, 0, 0, 1, 0, 3)"><g clip-path="url(#59157212cc)"><g clip-path="url(#67f44dcb5e)"><path fill="#caaacd" d="M 65.300781 24.164062 C 65.078125 24.230469 64.972656 24.261719 64.796875 24.3125 C 64.914062 24.277344 65.078125 24.226562 65.300781 24.164062 Z M 54.53125 19.464844 L 54.730469 19.195312 L 54.425781 19.574219 L 54.265625 19.820312 Z M 70.941406 39.207031 L 72.894531 39.386719 L 71.976562 39.289062 Z M 45.757812 47.300781 L 45.683594 47.027344 L 45.640625 46.933594 Z M 15.25 34.945312 C 15.125 34.949219 14.957031 34.957031 14.726562 34.96875 C 14.957031 34.960938 15.070312 34.953125 15.25 34.945312 Z M 55.1875 18.582031 C 55.183594 18.589844 55.175781 18.597656 55.160156 18.617188 C 55.171875 18.605469 55.179688 18.59375 55.1875 18.582031 Z M 48.535156 28.9375 C 48.535156 28.9375 48.539062 28.9375 48.539062 28.9375 C 48.558594 28.933594 48.554688 28.933594 48.535156 28.9375 Z M 13.761719 30.339844 C 13.777344 30.34375 13.789062 30.347656 13.804688 30.351562 C 13.78125 30.34375 13.765625 30.34375 13.761719 30.339844 Z M 28.5625 34.242188 C 28.558594 34.242188 28.558594 34.242188 28.554688 34.242188 C 28.566406 34.242188 28.566406 34.242188 28.5625 34.242188 Z M 74.816406 35.460938 C 74.8125 35.539062 74.808594 35.5625 74.808594 35.5625 C 74.8125 36.886719 74.8125 38.234375 74.816406 39.550781 C 74.078125 39.472656 73.351562 39.394531 72.640625 39.320312 C 72.015625 39.25 71.402344 39.179688 70.816406 39.109375 C 70.679688 39.117188 70.007812 39.058594 69.210938 38.980469 L 69.046875 39.023438 C 67.773438 38.890625 66.320312 38.75 65.128906 38.613281 C 63.015625 38.417969 61.074219 38.1875 59.246094 37.972656 C 58.925781 37.960938 58.835938 37.972656 59.289062 38.03125 C 57.585938 37.839844 55.621094 37.632812 53.621094 37.425781 C 53.578125 37.421875 53.527344 37.417969 53.484375 37.414062 C 53.441406 37.40625 53.445312 37.410156 53.414062 37.402344 C 52.53125 37.3125 51.648438 37.222656 50.773438 37.132812 C 50.707031 37.125 50.640625 37.121094 50.578125 37.117188 C 50.546875 37.113281 50.515625 37.113281 50.484375 37.109375 L 50.441406 37.109375 C 50.402344 37.109375 50.367188 37.109375 50.335938 37.105469 C 50.273438 37.105469 50.230469 37.105469 50.195312 37.101562 C 50.097656 37.097656 50.019531 37.089844 49.945312 37.085938 C 50.082031 37.160156 50.160156 37.214844 50.246094 37.277344 C 50.292969 37.3125 50.335938 37.34375 50.378906 37.375 C 50.519531 37.460938 50.65625 37.550781 50.796875 37.636719 C 52.242188 38.492188 53.515625 39.253906 54.390625 39.800781 C 55.042969 40.175781 55.640625 40.515625 56.257812 40.867188 C 56.179688 40.820312 56.160156 40.800781 56.0625 40.742188 L 55.355469 40.347656 C 54.707031 39.960938 53.859375 39.453125 54.671875 39.890625 L 54.921875 40.070312 C 55.941406 40.628906 58.71875 42.253906 58.089844 41.832031 C 59.40625 42.628906 58.90625 42.355469 58 41.84375 C 58.738281 42.265625 59.378906 42.636719 60 42.996094 C 61.265625 43.71875 62.527344 44.4375 63.855469 45.195312 C 64.1875 45.382812 64.523438 45.578125 64.863281 45.773438 C 65.035156 45.871094 65.207031 45.96875 65.378906 46.070312 C 65.554688 46.167969 65.726562 46.273438 65.90625 46.363281 C 66.628906 46.738281 67.371094 47.125 68.152344 47.53125 L 68.082031 47.511719 C 68.933594 47.964844 70.195312 48.632812 71.277344 49.21875 C 71.226562 49.171875 70.65625 48.851562 70.257812 48.625 C 70.714844 48.875 71.164062 49.117188 71.601562 49.34375 C 72.191406 49.648438 72.757812 49.945312 73.304688 50.226562 C 72.847656 50.546875 72.402344 50.855469 71.976562 51.152344 C 71.683594 51.363281 71.402344 51.5625 71.132812 51.753906 C 70.597656 52.132812 70.117188 52.472656 69.703125 52.765625 L 70.9375 51.945312 C 70.570312 52.191406 70.238281 52.417969 69.917969 52.632812 C 69.59375 52.851562 69.289062 53.0625 68.980469 53.273438 L 69.652344 52.742188 C 69.242188 53.03125 68.859375 53.296875 68.582031 53.492188 C 68.355469 53.347656 68.132812 53.203125 68.09375 53.183594 C 68.019531 53.140625 67.980469 53.117188 67.980469 53.125 C 67.351562 52.675781 68.171875 53.160156 67.5 52.667969 C 66.761719 52.195312 65.996094 51.707031 65.183594 51.1875 C 65.121094 51.167969 64.671875 50.910156 65.421875 51.421875 C 65.058594 51.179688 64.652344 50.914062 64.195312 50.621094 L 64.480469 50.835938 C 61.53125 48.972656 63.183594 49.882812 60.160156 47.894531 C 60.519531 48.183594 59.417969 47.5 58.925781 47.167969 C 60.144531 47.96875 59.542969 47.492188 58.445312 46.730469 C 57.980469 46.4375 57.632812 46.210938 57.335938 46.015625 C 57.210938 45.9375 57.085938 45.855469 56.949219 45.773438 L 57.066406 45.835938 C 56.820312 45.667969 56.625 45.535156 56.445312 45.414062 C 56.257812 45.3125 56.089844 45.21875 55.90625 45.117188 C 55.722656 45.015625 55.523438 44.910156 55.285156 44.785156 L 56.15625 45.230469 C 53.863281 44 50.980469 42.523438 48.105469 41.035156 C 48.015625 41.015625 48.160156 41.117188 47.570312 40.820312 C 47.433594 40.746094 47.304688 40.675781 47.183594 40.605469 C 47.144531 40.585938 47.109375 40.5625 47.074219 40.546875 C 47.003906 40.503906 46.941406 40.472656 46.890625 40.445312 C 46.9375 40.53125 46.984375 40.605469 47.023438 40.671875 L 47.054688 40.714844 L 47.070312 40.738281 C 47.074219 40.746094 47.070312 40.738281 47.09375 40.78125 C 47.167969 40.90625 47.238281 41.035156 47.316406 41.171875 C 47.621094 41.710938 47.96875 42.339844 48.480469 43.3125 C 48.113281 42.726562 48.03125 42.585938 48.507812 43.515625 C 48.929688 44.25 49.421875 45.128906 49.9375 46.058594 C 50.046875 46.257812 50.160156 46.457031 50.265625 46.652344 C 51.285156 48.5 52.320312 50.378906 52.871094 51.382812 L 52.179688 50.199219 C 53.386719 52.332031 53.769531 53.128906 54.257812 54.09375 C 54.375 54.304688 54.488281 54.507812 54.609375 54.730469 L 54.351562 54.273438 C 54.707031 54.96875 55.140625 55.792969 55.984375 57.285156 L 54.863281 55.085938 C 55.683594 56.636719 56.414062 57.929688 56.261719 57.539062 C 56.480469 57.960938 56.597656 58.199219 56.675781 58.359375 C 56.710938 58.4375 56.738281 58.496094 56.761719 58.542969 C 56.769531 58.570312 56.78125 58.589844 56.789062 58.613281 C 56.800781 58.636719 56.800781 58.644531 56.824219 58.6875 C 56.835938 58.71875 56.84375 58.753906 56.859375 58.796875 C 56.871094 58.832031 56.886719 58.875 56.90625 58.925781 C 56.945312 59.035156 57.003906 59.183594 57.097656 59.410156 C 57.226562 59.71875 57.347656 60.007812 57.488281 60.347656 C 57.527344 60.441406 57.554688 60.503906 57.601562 60.609375 L 57.585938 60.585938 C 57.832031 61.183594 58.054688 61.738281 58.085938 61.890625 L 58.9375 63.730469 C 59.109375 64.136719 59.265625 64.5 59.410156 64.832031 C 59.601562 65.289062 59.773438 65.699219 59.929688 66.078125 C 59.710938 66.074219 59.5 66.074219 59.296875 66.070312 C 59.125 66.066406 58.960938 66.0625 58.800781 66.0625 C 58.5625 66.054688 58.335938 66.046875 58.113281 66.039062 C 58.210938 66.050781 58.378906 66.0625 58.640625 66.078125 C 57.476562 66.078125 56.359375 66.078125 55.257812 66.074219 C 55.460938 66.082031 55.558594 66.082031 55.882812 66.089844 C 55.589844 66.089844 55.304688 66.089844 55.042969 66.089844 C 54.785156 65.714844 54.554688 65.382812 54.382812 65.132812 C 54.234375 64.914062 54.140625 64.765625 54.125 64.726562 C 54.0625 64.636719 54 64.546875 53.941406 64.457031 C 53.789062 64.246094 53.605469 63.976562 53.378906 63.636719 C 52.980469 63.054688 52.589844 62.480469 52.199219 61.914062 L 51.546875 60.980469 L 51.65625 61.128906 L 52.140625 61.832031 C 51.996094 61.617188 51.855469 61.410156 51.710938 61.199219 C 51.695312 61.179688 51.671875 61.144531 51.65625 61.128906 L 51.644531 61.105469 C 51.109375 60.328125 50.578125 59.558594 50.054688 58.796875 C 49.515625 58.027344 48.984375 57.261719 48.449219 56.496094 C 48.316406 56.058594 48.183594 55.621094 48.050781 55.183594 C 47.828125 54.195312 47.160156 51.910156 46.558594 49.835938 C 46.355469 49.160156 46.160156 48.511719 45.984375 47.917969 C 45.949219 47.804688 45.914062 47.691406 45.878906 47.582031 C 45.851562 47.503906 45.828125 47.429688 45.804688 47.359375 C 45.757812 47.222656 45.714844 47.109375 45.683594 47.027344 C 45.640625 46.886719 45.601562 46.742188 45.558594 46.589844 C 45.4375 46.167969 45.316406 45.734375 45.199219 45.316406 C 45.242188 45.738281 45.285156 46.15625 45.320312 46.507812 C 45.371094 46.96875 45.414062 47.363281 45.453125 47.730469 C 45.460938 47.796875 45.46875 47.859375 45.476562 47.929688 C 45.46875 47.785156 45.46875 47.742188 45.464844 47.675781 C 45.488281 47.859375 45.507812 48.019531 45.527344 48.167969 C 45.546875 48.347656 45.5625 48.511719 45.582031 48.65625 C 45.613281 48.953125 45.636719 49.1875 45.652344 49.390625 C 45.742188 50.191406 45.832031 50.964844 45.890625 51.472656 C 45.832031 51.023438 45.761719 50.5 45.691406 49.953125 C 45.707031 50.207031 45.71875 50.453125 45.742188 50.765625 C 45.84375 51.578125 45.9375 52.308594 46 52.773438 L 45.992188 53.117188 C 45.996094 53.140625 45.996094 53.152344 46 53.175781 C 46.28125 55.023438 45.820312 51.238281 45.980469 52.394531 C 46.183594 52.882812 46.453125 56.78125 46.8125 59.21875 L 46.757812 58.625 C 46.878906 59.511719 46.988281 60.589844 47.109375 61.804688 C 47.167969 62.414062 47.230469 63.054688 47.296875 63.726562 C 47.332031 64.0625 47.367188 64.402344 47.402344 64.75 C 47.445312 65.140625 47.488281 65.535156 47.53125 65.9375 C 47.378906 66.035156 47.222656 66.136719 47.0625 66.234375 L 47.085938 66.246094 C 46.726562 66.457031 46.265625 66.734375 45.800781 67.015625 C 45.355469 67.300781 44.925781 67.566406 44.539062 67.78125 C 43.835938 68.21875 43.109375 68.667969 42.347656 69.136719 C 42.34375 68.964844 42.335938 68.773438 42.328125 68.582031 C 42.324219 68.480469 42.320312 68.472656 42.308594 68.292969 C 42.3125 68.230469 42.3125 68.222656 42.316406 68.191406 C 42.28125 67.160156 42.246094 66.140625 42.214844 65.222656 C 42.195312 66.140625 42.238281 66.5625 42.15625 66.003906 C 42.113281 64.777344 42.238281 66.011719 42.183594 64.132812 C 42.160156 63.710938 42.136719 63.332031 42.117188 62.933594 C 42.054688 62.027344 41.980469 60.917969 41.921875 60.730469 L 42.023438 63.222656 C 41.890625 61.953125 41.890625 59.996094 41.820312 58.6875 L 41.792969 58.855469 C 41.714844 56.84375 41.699219 55.859375 41.679688 54.792969 C 41.660156 54.359375 41.640625 53.945312 41.621094 53.558594 C 41.613281 53.363281 41.605469 53.171875 41.597656 52.992188 C 41.59375 52.8125 41.589844 52.640625 41.585938 52.476562 C 41.582031 52.457031 41.578125 52.4375 41.578125 52.417969 L 41.589844 52.476562 L 41.617188 52.988281 C 41.617188 52.824219 41.613281 52.65625 41.609375 52.472656 C 41.59375 52.390625 41.578125 52.300781 41.5625 52.210938 C 41.484375 51.792969 41.425781 51.464844 41.324219 50.925781 L 41.332031 50.960938 C 41.03125 49.394531 40.6875 47.796875 40.542969 46.902344 L 40.453125 46.628906 C 40.34375 45.996094 40.148438 44.867188 39.902344 43.464844 C 39.875 43.550781 39.808594 43.773438 39.742188 44.015625 C 39.714844 44.109375 39.695312 44.179688 39.667969 44.285156 L 39.675781 44.246094 C 39.597656 44.523438 39.523438 44.785156 39.445312 45.058594 C 39.355469 45.402344 39.265625 45.746094 39.171875 46.105469 C 39.304688 45.65625 39.457031 45.132812 39.621094 44.574219 C 39.710938 44.285156 39.804688 43.976562 39.894531 43.675781 C 39.933594 43.921875 39.972656 44.164062 40.007812 44.386719 C 40.015625 44.4375 40.023438 44.484375 40.03125 44.535156 C 40.046875 44.621094 40.058594 44.707031 40.074219 44.789062 C 40.109375 44.988281 40.140625 45.175781 40.171875 45.355469 C 40.125 45.109375 40.0625 44.792969 39.996094 44.4375 C 39.964844 44.257812 39.925781 44.058594 39.890625 43.859375 C 39.800781 44.167969 39.710938 44.480469 39.636719 44.742188 C 39.484375 45.296875 39.355469 45.738281 39.285156 45.949219 L 39.542969 45.023438 L 39.734375 44.328125 C 39.714844 44.386719 39.695312 44.441406 39.675781 44.5 L 39.628906 44.640625 C 39.609375 44.703125 39.59375 44.769531 39.574219 44.832031 C 39.496094 45.089844 39.417969 45.359375 39.335938 45.636719 C 39.175781 46.195312 39.003906 46.796875 38.824219 47.429688 C 38.5 48.667969 38.179688 49.910156 37.875 51.074219 C 37.871094 51.113281 37.875 51.117188 37.863281 51.171875 L 37.871094 51.148438 L 37.859375 51.1875 C 37.761719 51.6875 37.460938 52.851562 37.105469 54.214844 L 37.128906 54.164062 C 37.011719 54.625 36.941406 54.871094 36.890625 55.027344 C 36.34375 57.113281 35.738281 59.40625 35.539062 60.398438 C 35.308594 61.242188 35.078125 62.078125 34.847656 62.921875 C 34.601562 63.851562 34.351562 64.785156 34.101562 65.730469 C 32.117188 65.109375 30.101562 64.480469 27.992188 63.824219 C 28.648438 62.179688 29.328125 60.476562 30.039062 58.691406 C 29.441406 60.519531 30.445312 57.765625 30.652344 57.472656 C 30.828125 57.011719 31.03125 56.507812 31.28125 55.894531 C 31.019531 56.453125 30.636719 57.289062 31.246094 55.699219 C 30.617188 57.414062 32.222656 53.46875 31.605469 55.144531 L 31.640625 55.0625 L 32.972656 51.554688 C 33.308594 50.605469 32.441406 52.785156 32.460938 52.652344 C 33.597656 49.792969 32.886719 51.433594 33.609375 49.53125 C 33.503906 49.9375 34.078125 48.566406 34.714844 46.929688 L 33.855469 49.246094 C 34.652344 47.355469 34.976562 46.472656 35.289062 45.628906 L 35.34375 45.472656 L 35.351562 45.4375 C 35.359375 45.414062 35.363281 45.394531 35.367188 45.375 C 35.375 45.34375 35.382812 45.3125 35.390625 45.273438 C 35.40625 45.210938 35.421875 45.167969 35.527344 44.9375 L 35.507812 44.949219 C 35.507812 44.960938 35.503906 44.976562 35.492188 45 C 35.441406 45.109375 35.394531 45.199219 35.355469 45.269531 C 35.371094 45.238281 35.386719 45.203125 35.40625 45.160156 C 35.390625 45.179688 35.351562 45.230469 35.300781 45.292969 C 35.273438 45.332031 35.246094 45.367188 35.21875 45.40625 C 34.972656 45.75 34.726562 46.097656 34.484375 46.441406 C 33.484375 47.847656 32.503906 49.207031 31.863281 50.042969 C 31.746094 50.210938 31.640625 50.359375 31.539062 50.507812 C 31.382812 50.761719 31.304688 50.917969 31.757812 50.285156 C 30.238281 52.464844 28.515625 54.863281 26.882812 57.148438 C 26.476562 57.71875 26.074219 58.285156 25.679688 58.832031 C 25.484375 59.109375 25.292969 59.382812 25.101562 59.648438 C 24.898438 59.910156 24.699219 60.167969 24.507812 60.417969 C 23.730469 61.429688 23.015625 62.371094 22.398438 63.203125 L 22.675781 62.898438 C 22.460938 63.171875 22.257812 63.421875 22.054688 63.675781 C 21.953125 63.800781 21.851562 63.925781 21.746094 64.058594 C 21.589844 64.257812 21.429688 64.464844 21.261719 64.679688 C 21.050781 64.519531 20.824219 64.34375 20.578125 64.15625 C 20.636719 64.203125 20.644531 64.210938 20.714844 64.265625 C 20.644531 64.210938 20.546875 64.136719 20.457031 64.066406 C 20.394531 64.019531 20.347656 63.984375 20.28125 63.933594 L 20.207031 63.925781 C 20.023438 63.777344 19.59375 63.429688 19.078125 63.019531 C 18.820312 62.8125 18.542969 62.59375 18.265625 62.375 C 17.929688 62.117188 17.597656 61.859375 17.289062 61.621094 L 17.109375 61.488281 L 17.15625 61.433594 L 17.105469 61.492188 L 17.65625 61.933594 L 17.980469 62.203125 C 17.652344 61.953125 17.332031 61.707031 17.054688 61.496094 C 17.550781 60.917969 18.019531 60.375 18.464844 59.859375 C 18.84375 59.425781 19.203125 59.015625 19.546875 58.621094 C 20.246094 57.835938 20.890625 57.113281 21.53125 56.394531 C 21.558594 56.355469 21.546875 56.359375 21.617188 56.273438 C 21.621094 56.285156 21.742188 56.152344 21.9375 55.933594 C 22.128906 55.714844 22.394531 55.414062 22.683594 55.089844 L 22.089844 55.691406 C 22.574219 55.128906 23.050781 54.578125 23.621094 53.898438 L 22.667969 55.035156 C 23.304688 54.316406 24.148438 53.371094 25.117188 52.28125 C 25.269531 52.078125 25.503906 51.785156 25.789062 51.4375 C 26.070312 51.097656 26.394531 50.703125 26.738281 50.292969 C 27.289062 49.386719 27.878906 48.410156 28.3125 47.699219 L 28.261719 47.753906 C 29.085938 46.421875 29.851562 45.195312 30.589844 44.03125 C 30.957031 43.449219 31.316406 42.878906 31.671875 42.320312 C 31.753906 42.203125 31.835938 42.085938 31.914062 41.96875 L 31.589844 42.167969 C 31.128906 42.484375 30.664062 42.800781 30.191406 43.121094 C 29.183594 43.8125 28.144531 44.527344 27.042969 45.28125 C 25.910156 46.128906 24.101562 47.414062 22.054688 48.855469 C 20.007812 50.292969 17.730469 51.894531 15.632812 53.367188 C 14.753906 54.128906 13.921875 54.851562 13.15625 55.511719 C 13.792969 54.945312 13 55.542969 12.242188 56.179688 C 12.0625 56.335938 11.855469 56.511719 11.640625 56.695312 C 11.34375 56.945312 11.035156 57.203125 10.738281 57.453125 C 10.578125 57.132812 10.425781 56.820312 10.285156 56.535156 C 10.1875 56.335938 10.097656 56.160156 10.023438 56.011719 C 9.875 55.722656 9.78125 55.558594 9.785156 55.632812 L 9.996094 56.050781 C 9.789062 55.71875 9.480469 55.140625 9.121094 54.453125 C 8.945312 54.109375 8.753906 53.734375 8.558594 53.351562 C 8.316406 52.871094 8.066406 52.375 7.820312 51.882812 C 8.324219 51.582031 8.824219 51.28125 9.292969 50.996094 L 9.648438 50.925781 C 11.230469 49.898438 13.179688 48.703125 15.160156 47.515625 C 17.140625 46.332031 19.140625 45.132812 20.839844 44.117188 C 21.199219 43.859375 21.546875 43.609375 21.875 43.375 C 22.207031 43.132812 22.519531 42.90625 22.808594 42.695312 C 23.386719 42.269531 23.875 41.898438 24.238281 41.609375 C 25.320312 40.855469 26.667969 39.914062 27.742188 39.167969 L 27.644531 39.15625 C 28.113281 38.816406 28.539062 38.507812 28.933594 38.222656 C 29.003906 38.171875 29.066406 38.121094 29.125 38.078125 C 29.042969 38.089844 28.964844 38.105469 28.882812 38.117188 C 28.4375 38.183594 27.984375 38.253906 27.503906 38.324219 C 26.441406 38.480469 25.261719 38.65625 23.792969 38.871094 L 24.714844 38.78125 C 22.191406 39.164062 21.496094 39.074219 19.167969 39.417969 L 18.488281 39.617188 C 14.085938 40.277344 9.644531 41.03125 5.28125 41.59375 C 5.351562 41.597656 5.488281 41.605469 6.207031 41.503906 C 5.609375 41.59375 4.742188 41.726562 3.78125 41.875 C 3.777344 41.113281 3.777344 40.289062 3.773438 39.5 C 3.773438 38.835938 3.777344 38.199219 3.777344 37.660156 C 3.785156 36.683594 3.804688 36.027344 3.84375 36.136719 C 3.839844 36.105469 3.839844 36.070312 3.835938 36.019531 C 3.835938 35.988281 3.832031 35.953125 3.832031 35.914062 C 3.832031 35.859375 3.828125 35.800781 3.828125 35.734375 C 3.828125 35.601562 3.824219 35.449219 3.824219 35.28125 C 4.0625 35.269531 4.347656 35.257812 4.671875 35.246094 C 4.882812 35.238281 5.121094 35.230469 5.378906 35.21875 C 5.886719 35.207031 6.46875 35.191406 7.066406 35.171875 C 8.265625 35.148438 9.535156 35.117188 10.480469 35.097656 L 10.101562 35.046875 C 12.128906 35.054688 12.195312 35.074219 15.023438 34.992188 C 15.523438 34.96875 15.597656 34.941406 15.25 34.945312 C 16.800781 34.878906 16.75 34.949219 19.175781 34.828125 L 18.164062 34.828125 C 20.464844 34.734375 20.285156 34.765625 21.546875 34.765625 C 22.992188 34.738281 25.910156 34.585938 26.25 34.515625 C 26.421875 34.53125 26.910156 34.535156 27.527344 34.527344 C 27.578125 34.523438 27.605469 34.519531 27.660156 34.515625 C 27.644531 34.519531 27.722656 34.519531 27.769531 34.519531 C 27.929688 34.515625 28.089844 34.515625 28.261719 34.511719 C 28.40625 34.507812 28.558594 34.5 28.699219 34.492188 C 28.722656 34.480469 28.644531 34.472656 28.554688 34.46875 C 28.476562 34.46875 28.363281 34.464844 28.292969 34.464844 C 28.660156 34.441406 28.957031 34.429688 29.261719 34.417969 C 28.976562 34.34375 28.730469 34.273438 28.476562 34.199219 C 28.34375 34.160156 28.21875 34.125 28.089844 34.085938 C 27.867188 34.023438 27.648438 33.964844 27.433594 33.902344 C 26.476562 33.640625 25.570312 33.398438 24.535156 33.152344 C 24.480469 33.160156 24.3125 33.125 24.097656 33.078125 C 25.578125 33.464844 26.914062 33.816406 27.847656 34.058594 C 28.097656 34.125 28.292969 34.175781 28.417969 34.207031 C 28.492188 34.226562 28.539062 34.238281 28.554688 34.242188 C 28.503906 34.242188 28.40625 34.230469 28.3125 34.214844 C 28.214844 34.199219 28.121094 34.183594 28.0625 34.179688 C 28.03125 34.175781 28.007812 34.175781 27.992188 34.179688 C 27.988281 34.183594 27.957031 34.179688 27.976562 34.191406 C 27.980469 34.207031 28.023438 34.238281 28.027344 34.257812 L 28.003906 34.242188 L 27.988281 34.234375 L 27.976562 34.226562 L 27.96875 34.222656 L 27.917969 34.210938 C 27.640625 34.128906 27.347656 34.046875 27.042969 33.957031 C 26.433594 33.78125 25.773438 33.59375 25.101562 33.402344 C 23.757812 33.019531 22.359375 32.632812 21.191406 32.339844 L 20.882812 32.28125 L 21.121094 32.351562 L 19.648438 31.953125 C 18.90625 31.769531 18.429688 31.648438 17.71875 31.464844 C 17.433594 31.4375 14.972656 30.765625 13.777344 30.457031 C 13.890625 30.417969 12.367188 30.027344 13.761719 30.339844 C 13.722656 30.335938 14.128906 30.445312 14.820312 30.628906 L 15.324219 30.769531 L 15.25 30.742188 C 16.027344 30.949219 17.046875 31.21875 18.207031 31.527344 C 17.273438 31.246094 16.296875 30.960938 14.972656 30.648438 C 14.375 30.449219 13.710938 30.230469 13.335938 30.109375 C 11.683594 29.769531 8.53125 28.988281 8.082031 28.929688 C 7.171875 28.683594 6.183594 28.414062 5.175781 28.140625 C 4.335938 27.71875 3.480469 27.285156 2.652344 26.867188 C 1.769531 26.417969 0.914062 25.980469 0.128906 25.582031 C 0.214844 25.386719 0.292969 25.191406 0.375 25.003906 C 0.429688 24.878906 0.480469 24.753906 0.535156 24.636719 C 0.636719 24.394531 0.738281 24.164062 0.835938 23.945312 C 1.027344 23.507812 1.203125 23.117188 1.359375 22.789062 C 1.53125 22.386719 1.632812 22.121094 1.707031 21.921875 C 1.796875 21.660156 1.859375 21.488281 1.921875 21.3125 C 2.011719 21.324219 2.105469 21.335938 2.210938 21.351562 L 1.910156 21.292969 L 1.261719 22.8125 C 1.445312 22.375 1.664062 21.851562 1.902344 21.28125 C 3.027344 21.484375 4.308594 21.71875 5.363281 21.910156 C 6.363281 22.09375 7.144531 22.25 7.339844 22.316406 C 10 22.742188 5.863281 21.980469 9.503906 22.628906 L 9.019531 22.519531 C 9.660156 22.621094 10.28125 22.722656 10.875 22.820312 C 11.253906 22.945312 11.625 23.066406 11.988281 23.1875 C 12.34375 23.308594 12.699219 23.425781 13.046875 23.542969 C 13.738281 23.78125 14.414062 24.015625 15.082031 24.246094 C 16.410156 24.71875 17.703125 25.175781 19.03125 25.644531 C 21.679688 26.582031 24.46875 27.554688 27.984375 28.652344 L 27.066406 28.375 C 28.40625 28.820312 29.765625 29.269531 31.132812 29.722656 C 28.371094 27.863281 25.574219 25.984375 22.796875 24.113281 C 19.660156 22.007812 16.542969 19.925781 13.492188 17.941406 C 12.554688 17.328125 11.984375 16.941406 11.535156 16.625 C 11.03125 16.265625 10.648438 15.996094 10.117188 15.617188 C 10.253906 15.5 10.445312 15.335938 10.660156 15.148438 L 11.027344 14.71875 L 13.078125 12.960938 C 13.613281 12.484375 14.117188 12.027344 14.605469 11.578125 C 15.117188 11.09375 15.621094 10.625 16.128906 10.148438 C 16.578125 10.523438 17.03125 10.902344 17.5 11.289062 C 17.929688 11.648438 18.375 12.019531 18.839844 12.40625 C 19.761719 13.1875 20.757812 14.046875 21.886719 15.0625 L 21.378906 14.691406 C 22.703125 15.820312 25.539062 18.3125 25.351562 18.082031 C 25.480469 18.203125 25.75 18.488281 26.285156 18.917969 L 26.347656 18.921875 L 29.546875 21.761719 C 32.070312 23.902344 29.242188 21.3125 32.910156 24.464844 C 33.90625 25.335938 35.496094 26.777344 36.058594 27.308594 C 35.875 26.539062 35.429688 24.457031 35.175781 23.171875 C 34.285156 18.40625 35.113281 22.160156 34.523438 18.894531 L 33.664062 14.695312 L 33.691406 14.636719 C 33.589844 13.960938 33.476562 13.578125 33.433594 13.410156 C 33.542969 13.6875 32.804688 9.976562 32.488281 8.261719 L 32.558594 8.886719 C 32.265625 7.507812 32.03125 6.292969 31.828125 5.171875 C 31.730469 4.609375 31.636719 4.074219 31.546875 3.550781 C 31.453125 3 31.363281 2.46875 31.273438 1.941406 C 31.996094 1.691406 32.703125 1.449219 33.425781 1.199219 C 34.125 0.957031 34.835938 0.699219 35.585938 0.414062 L 36.296875 0.136719 L 36.671875 2.238281 L 36.683594 2.804688 C 36.957031 4.363281 37.054688 4.628906 37.410156 7.199219 C 37.835938 10.339844 38.308594 13.550781 38.792969 16.792969 C 39.273438 19.953125 39.753906 23.144531 40.234375 26.3125 C 41.148438 25.300781 42.058594 24.289062 42.964844 23.28125 C 43.925781 22.222656 44.882812 21.167969 45.832031 20.125 L 45.167969 20.816406 C 45.800781 20.144531 46.398438 19.5 46.964844 18.878906 C 47.25 18.570312 47.527344 18.265625 47.796875 17.96875 C 48.066406 17.671875 48.328125 17.378906 48.582031 17.09375 C 48.878906 16.511719 49.167969 15.945312 49.449219 15.390625 C 49.730469 14.832031 50.003906 14.285156 50.273438 13.746094 C 50.808594 12.667969 51.328125 11.617188 51.851562 10.558594 C 52.90625 8.441406 53.992188 6.289062 55.332031 3.8125 L 55.125 4.261719 C 56.8125 0.960938 54.914062 4.730469 56.1875 2.34375 C 56.207031 2.292969 56.230469 2.230469 56.285156 2.113281 C 56.34375 1.984375 56.421875 1.820312 56.523438 1.613281 C 56.824219 1.828125 57.226562 2.109375 57.679688 2.433594 C 58.089844 2.730469 58.550781 3.0625 59.019531 3.402344 C 59.960938 4.085938 60.933594 4.796875 61.640625 5.300781 L 60.265625 4.324219 C 60.578125 4.578125 60.675781 4.710938 61.546875 5.332031 C 61.84375 5.527344 62.1875 5.761719 62.570312 6.027344 C 62.761719 6.160156 62.960938 6.300781 63.171875 6.449219 C 63.425781 6.628906 63.6875 6.816406 63.960938 7.011719 C 63.550781 7.5625 63.113281 8.160156 62.65625 8.777344 C 62.234375 9.34375 61.792969 9.933594 61.355469 10.523438 C 60.472656 11.703125 59.585938 12.894531 58.792969 13.953125 C 58.554688 14.199219 57.367188 15.703125 56.328125 16.988281 C 56.175781 17.191406 56.039062 17.386719 55.921875 17.558594 L 56.089844 17.347656 C 55.347656 18.3125 55.003906 18.75 54.832031 18.960938 C 54.699219 19.164062 54.558594 19.371094 54.425781 19.574219 C 53.574219 20.640625 52.980469 21.46875 52.417969 22.265625 C 53.144531 21.308594 53.777344 20.464844 54.265625 19.820312 L 54.222656 19.886719 L 54.53125 19.464844 C 54.96875 18.886719 55.21875 18.550781 55.1875 18.582031 C 56.097656 17.46875 55.136719 18.722656 55.246094 18.683594 C 54.5 19.667969 52.976562 21.71875 52.765625 21.917969 C 52.320312 22.503906 52.015625 22.894531 51.546875 23.496094 L 50.632812 24.722656 L 50.777344 24.519531 L 50.570312 24.757812 C 50.519531 24.824219 50.457031 24.90625 50.40625 24.972656 C 49.84375 25.742188 49.746094 25.867188 49.789062 25.789062 C 49.296875 26.441406 48.785156 27.140625 48.28125 27.828125 C 48.03125 28.171875 47.785156 28.511719 47.546875 28.839844 C 47.460938 28.96875 47.390625 29.074219 47.34375 29.152344 C 47.433594 29.121094 47.519531 29.089844 47.597656 29.0625 C 47.632812 29.050781 47.660156 29.039062 47.691406 29.027344 C 47.804688 28.992188 47.910156 28.960938 48.015625 28.929688 C 47.898438 28.964844 47.796875 29 47.710938 29.027344 L 47.691406 29.035156 L 47.667969 29.046875 L 47.640625 29.0625 C 47.605469 29.078125 47.578125 29.09375 47.566406 29.105469 C 47.539062 29.125 47.574219 29.128906 47.652344 29.117188 C 47.671875 29.113281 47.691406 29.109375 47.714844 29.105469 C 47.765625 29.09375 47.816406 29.082031 47.871094 29.070312 C 47.976562 29.046875 48.085938 29.019531 48.183594 29 C 48.375 28.957031 48.523438 28.925781 48.535156 28.9375 C 48.488281 28.949219 48.339844 28.992188 48.09375 29.058594 C 47.859375 29.125 47.503906 29.222656 47.058594 29.34375 C 47.519531 28.738281 48.101562 27.96875 48.734375 27.136719 C 48.597656 27.308594 48.484375 27.441406 48.4375 27.46875 C 48.195312 27.769531 47.96875 28.0625 47.75 28.347656 C 47.566406 28.59375 47.382812 28.832031 47.203125 29.070312 L 47.191406 29.09375 C 47.175781 29.109375 47.179688 29.105469 47.167969 29.117188 C 47.09375 29.21875 47.019531 29.316406 46.9375 29.429688 C 47.339844 29.308594 47.753906 29.1875 48.199219 29.054688 C 48.769531 28.890625 49.378906 28.71875 50.050781 28.523438 C 50.160156 28.488281 50.160156 28.488281 50.3125 28.441406 C 50.355469 28.433594 50.410156 28.417969 50.457031 28.410156 C 50.921875 28.28125 51.40625 28.148438 51.941406 28.003906 C 51.785156 28.050781 51.597656 28.113281 51.488281 28.152344 C 52.242188 27.945312 53.136719 27.675781 53.992188 27.421875 C 54.070312 27.390625 54.171875 27.359375 54.214844 27.339844 C 54.234375 27.339844 54.339844 27.3125 54.378906 27.304688 C 54.855469 27.164062 55.3125 27.03125 55.710938 26.925781 C 55.742188 26.945312 56.140625 26.84375 56.675781 26.699219 C 56.417969 26.746094 56.097656 26.820312 55.710938 26.925781 L 55.902344 26.824219 C 56.335938 26.699219 56.511719 26.71875 56.683594 26.699219 C 57.316406 26.53125 58.1875 26.285156 59.171875 26.011719 C 59.550781 25.886719 59.785156 25.808594 60.160156 25.695312 C 60.539062 25.582031 61.058594 25.425781 62 25.144531 L 61.042969 25.472656 C 61.585938 25.316406 61.933594 25.210938 62.261719 25.113281 C 62.433594 25.058594 62.703125 24.972656 63.03125 24.867188 C 63.535156 24.703125 63.984375 24.554688 64.796875 24.3125 C 64.707031 24.34375 64.660156 24.359375 64.632812 24.375 C 65.679688 24.050781 66.867188 23.683594 67.953125 23.347656 C 68.433594 23.183594 68.90625 23.019531 69.707031 22.746094 L 69.378906 22.90625 C 69.464844 22.878906 69.570312 22.847656 69.652344 22.820312 L 69.578125 22.828125 C 69.613281 22.824219 69.726562 22.792969 69.78125 22.78125 C 70.492188 22.554688 71.34375 22.285156 72.179688 22.019531 C 72.597656 21.890625 73.015625 21.757812 73.410156 21.632812 C 73.917969 21.480469 74.394531 21.332031 74.824219 21.199219 C 74.824219 21.550781 74.824219 21.878906 74.824219 22.167969 C 74.820312 22.359375 74.820312 22.53125 74.816406 22.671875 C 74.8125 22.863281 74.808594 23.003906 74.796875 23.074219 C 74.824219 23.007812 74.84375 23.257812 74.851562 23.710938 C 74.859375 23.976562 74.863281 24.304688 74.867188 24.679688 C 74.867188 25.117188 74.867188 25.609375 74.871094 26.125 C 73.238281 26.613281 71.304688 27.195312 70.289062 27.5 C 70.980469 27.285156 71.097656 27.222656 71.164062 27.1875 C 66.980469 28.554688 62.644531 29.785156 58.386719 31.082031 L 58.03125 31.140625 C 57.90625 31.1875 57.808594 31.226562 57.695312 31.273438 C 57.289062 31.386719 56.535156 31.609375 55.753906 31.84375 C 55.546875 31.921875 55.351562 31.996094 55.148438 32.070312 L 54.925781 32.152344 L 54.894531 32.167969 C 54.859375 32.183594 54.828125 32.199219 54.792969 32.21875 C 54.675781 32.277344 54.625 32.316406 54.546875 32.347656 C 54.609375 32.351562 54.660156 32.355469 54.707031 32.359375 C 54.625 32.363281 54.519531 32.363281 54.394531 32.363281 L 54.40625 32.347656 C 54.378906 32.355469 54.351562 32.363281 54.34375 32.367188 C 54.925781 32.429688 55.421875 32.480469 55.867188 32.53125 C 56.703125 32.625 57.449219 32.707031 58.171875 32.789062 C 59.613281 32.953125 60.957031 33.109375 62.734375 33.3125 L 62.65625 33.371094 C 63.957031 33.496094 65.589844 33.65625 66.898438 33.785156 C 67.640625 33.90625 68.75 34.046875 70.085938 34.195312 C 71.476562 34.347656 73.101562 34.523438 74.804688 34.707031 C 74.804688 34.785156 74.804688 34.863281 74.804688 34.941406 L 74.820312 34.867188 C 74.816406 35.167969 74.816406 35.351562 74.816406 35.460938 Z M 52.964844 21.648438 C 53.046875 21.5625 53.21875 21.355469 53.707031 20.695312 L 53.878906 20.414062 L 53.824219 20.5 Z M 17.394531 31.378906 L 16.015625 31.003906 L 15.917969 30.972656 L 16.226562 31.085938 C 17.015625 31.304688 17.28125 31.359375 17.394531 31.378906 Z M 36.140625 27.589844 L 36.230469 27.667969 L 36.191406 27.464844 C 36.164062 27.441406 36.136719 27.417969 36.109375 27.394531 C 36.117188 27.433594 36.121094 27.46875 36.128906 27.507812 L 36.1875 27.570312 L 36.132812 27.519531 C 36.132812 27.519531 36.132812 27.523438 36.132812 27.523438 C 36.136719 27.554688 36.140625 27.574219 36.140625 27.589844 Z M 36.101562 27.347656 C 36.132812 27.378906 36.160156 27.40625 36.183594 27.425781 L 36.109375 27.183594 L 36.148438 27.234375 L 36.023438 26.566406 L 35.835938 25.632812 C 35.8125 25.6875 35.96875 26.636719 36.101562 27.347656 Z M 34.710938 26.265625 L 35.945312 27.355469 C 35.96875 27.394531 36.007812 27.453125 36.046875 27.507812 L 36.128906 27.578125 C 36.121094 27.558594 36.113281 27.53125 36.105469 27.496094 L 35.945312 27.355469 L 35.914062 27.277344 L 36.101562 27.476562 C 36.09375 27.445312 36.082031 27.40625 36.070312 27.363281 C 35.523438 26.894531 34.769531 26.269531 34.710938 26.265625 Z M 47.8125 42.328125 C 47.941406 42.535156 48.097656 42.800781 48.261719 43.085938 L 47.632812 41.910156 C 47.597656 41.878906 47.703125 42.109375 47.8125 42.328125 Z M 69.464844 38.960938 C 69.421875 38.957031 69.386719 38.953125 69.34375 38.949219 L 69.335938 38.949219 Z M 65.421875 51.421875 C 65.570312 51.523438 65.769531 51.65625 66.03125 51.828125 C 65.84375 51.703125 65.640625 51.566406 65.421875 51.421875 Z M 14.972656 30.648438 L 14.5 30.539062 L 14.820312 30.628906 L 15.25 30.742188 Z M 52.921875 27.691406 C 54.148438 27.328125 53.894531 27.390625 52.839844 27.664062 C 52.933594 27.652344 51.269531 28.144531 52.921875 27.691406 Z M 57.566406 37.867188 L 56.992188 37.800781 L 55.375 37.625 Z M 46.378906 49.386719 L 46.195312 49.023438 C 46.59375 50.457031 46.617188 50.253906 46.378906 49.386719 Z M 41.371094 51.390625 C 41.269531 50.800781 41.019531 49.660156 40.796875 48.507812 C 40.929688 49.402344 41.230469 50.839844 41.371094 51.390625 Z M 10.925781 50.015625 L 11.828125 49.5 L 12.617188 49.019531 Z M 10.925781 50.015625 " fill-opacity="1" fill-rule="nonzero"/></g></g></g></g></g></svg>