<svg xmlns="http://www.w3.org/2000/svg" xmlns:xlink="http://www.w3.org/1999/xlink" width="100" zoomAndPan="magnify" viewBox="0 0 75 74.999997" height="100" preserveAspectRatio="xMidYMid meet" version="1.0"><path fill="#d6e8f7" d="M 51.789062 67.863281 C 34.582031 75 2.710938 61.214844 1.75 39.351562 C 0.875 18.972656 12.375 6.035156 30.113281 0.902344 C 32.839844 0.140625 35.695312 0 38.492188 0.5 C 47 1.960938 65.28125 6.71875 69.484375 20.808594 C 75.011719 39.351562 69.011719 60.730469 51.789062 67.863281 Z M 66.5625 23.160156 C 62.734375 10.375 46.066406 6.078125 38.324219 4.742188 C 35.792969 4.285156 33.175781 4.410156 30.695312 5.105469 C 14.53125 9.765625 4.046875 21.488281 4.855469 39.960938 C 5.71875 59.769531 34.761719 72.261719 50.4375 65.804688 C 66.117188 59.351562 71.601562 39.960938 66.5625 23.160156 Z M 66.5625 23.160156 " fill-opacity="1" fill-rule="nonzero"/></svg>