<svg xmlns="http://www.w3.org/2000/svg" xmlns:xlink="http://www.w3.org/1999/xlink" width="100" zoomAndPan="magnify" viewBox="0 0 75 74.999997" height="100" preserveAspectRatio="xMidYMid meet" version="1.0"><defs><filter x="0%" y="0%" width="100%" height="100%" id="e8cb86482f"><feColorMatrix values="0 0 0 0 1 0 0 0 0 1 0 0 0 0 1 0 0 0 1 0" color-interpolation-filters="sRGB"/></filter><clipPath id="532ccc5188"><path d="M 0 1.636719 L 75 1.636719 L 75 73.636719 L 0 73.636719 Z M 0 1.636719 " clip-rule="nonzero"/></clipPath><mask id="4ed5c22eed"><g filter="url(#e8cb86482f)"><rect x="-7.5" width="90" fill="#000000" y="-7.5" height="89.999996" fill-opacity="0.8"/></g></mask><clipPath id="070abe6ffc"><path d="M 0 0.636719 L 75 0.636719 L 75 72.636719 L 0 72.636719 Z M 0 0.636719 " clip-rule="nonzero"/></clipPath><clipPath id="f53d9151a7"><rect x="0" width="75" y="0" height="73"/></clipPath></defs><g clip-path="url(#532ccc5188)"><g mask="url(#4ed5c22eed)"><g transform="matrix(1, 0, 0, 1, 0, 1)"><g clip-path="url(#f53d9151a7)"><g clip-path="url(#070abe6ffc)"><path fill="#ef601e" d="M 21.375 10.292969 C 21.289062 10.367188 21.25 10.402344 21.1875 10.457031 C 21.226562 10.417969 21.289062 10.363281 21.375 10.292969 Z M 10.148438 20.757812 L 10.074219 20.898438 L 10.199219 20.703125 L 10.253906 20.578125 Z M 50.769531 1.378906 L 49.867188 1.144531 L 50.289062 1.265625 Z M 0.488281 72.105469 L 0.453125 72.078125 L 0.300781 72.066406 Z M 74.894531 51.984375 L 74.890625 52.246094 L 74.898438 52.398438 Z M 24.140625 18.742188 C 24.199219 18.726562 24.273438 18.699219 24.378906 18.664062 C 24.273438 18.699219 24.222656 18.714844 24.140625 18.742188 Z M 14.664062 30.496094 C 14.667969 30.488281 14.671875 30.484375 14.675781 30.476562 C 14.667969 30.488281 14.664062 30.496094 14.664062 30.496094 Z M 74.890625 64.75 L 74.90625 64.742188 C 74.894531 64.941406 74.886719 65.195312 74.878906 65.457031 C 74.878906 65.707031 74.875 65.945312 74.859375 66.15625 C 74.847656 66.582031 74.839844 67.019531 74.832031 67.476562 C 74.835938 67.511719 74.839844 67.515625 74.839844 67.582031 C 74.835938 67.601562 74.832031 67.605469 74.832031 67.621094 C 74.824219 68.109375 74.820312 68.59375 74.8125 69.03125 C 74.859375 68.59375 74.835938 68.394531 74.882812 68.660156 C 74.875 69.242188 74.820312 68.65625 74.800781 69.546875 C 74.804688 69.746094 74.808594 69.925781 74.816406 70.117188 C 74.832031 70.546875 74.855469 71.074219 74.890625 71.164062 L 74.894531 69.980469 C 74.921875 70.269531 74.921875 70.625 74.917969 70.988281 C 74.914062 71.171875 74.910156 71.355469 74.90625 71.53125 C 74.90625 71.628906 74.902344 71.726562 74.902344 71.824219 C 74.902344 71.949219 74.902344 72.074219 74.902344 72.191406 C 74.839844 72.191406 74.785156 72.195312 74.734375 72.195312 L 74.882812 72.222656 C 74.578125 72.21875 74.3125 72.214844 74.078125 72.214844 C 73.890625 72.210938 73.730469 72.207031 73.582031 72.203125 C 73.28125 72.195312 73.039062 72.183594 72.789062 72.175781 C 72.363281 72.183594 71.980469 72.1875 71.648438 72.171875 L 71.933594 72.164062 C 71.8125 72.160156 71.683594 72.15625 71.550781 72.152344 C 71.351562 72.152344 71.191406 72.148438 70.933594 72.148438 L 70.953125 72.144531 C 70.195312 72.148438 69.425781 72.175781 68.996094 72.15625 L 68.859375 72.183594 C 68.832031 72.183594 68.796875 72.183594 68.707031 72.183594 C 68.28125 72.121094 67.441406 72 66.585938 71.875 C 66.519531 71.867188 66.46875 71.859375 66.390625 71.847656 L 66.417969 71.851562 C 66.257812 71.828125 66.109375 71.808594 65.957031 71.785156 C 65.789062 71.765625 65.621094 71.75 65.449219 71.726562 C 66.203125 71.859375 67.421875 72.03125 68.226562 72.15625 C 67.535156 72.074219 65.882812 71.871094 65.527344 71.792969 L 66.429688 71.914062 C 65.96875 71.828125 65.421875 71.742188 64.804688 71.652344 C 64.203125 71.585938 63.601562 71.519531 63.035156 71.457031 C 63.015625 71.457031 63.011719 71.460938 62.988281 71.460938 L 63 71.464844 L 62.980469 71.460938 C 62.738281 71.457031 62.171875 71.398438 61.511719 71.324219 L 61.535156 71.332031 C 61.421875 71.320312 61.335938 71.3125 61.269531 71.304688 C 61.226562 71.296875 61.1875 71.292969 61.152344 71.285156 C 61.113281 71.28125 61.082031 71.273438 61.054688 71.269531 C 60.960938 71.257812 60.871094 71.25 60.777344 71.238281 C 60.8125 70.945312 60.84375 70.644531 60.878906 70.355469 C 60.90625 70.117188 60.929688 69.886719 60.953125 69.667969 C 60.996094 69.238281 61.027344 68.871094 61.03125 68.644531 C 61.375 66.207031 61.589844 63.796875 61.9375 60.957031 C 61.921875 61.875 62.019531 60.484375 62.101562 60.328125 C 62.125 60.09375 62.152344 59.835938 62.191406 59.523438 C 62.132812 59.8125 62.046875 60.242188 62.125 59.4375 C 62.0625 60.300781 62.316406 58.296875 62.257812 59.144531 L 62.261719 59.101562 L 62.417969 57.324219 C 62.445312 56.847656 62.320312 57.953125 62.304688 57.890625 C 62.46875 56.4375 62.332031 57.277344 62.417969 56.3125 C 62.421875 56.386719 62.441406 56.339844 62.464844 56.207031 C 62.476562 56.144531 62.488281 56.054688 62.503906 55.953125 C 62.515625 55.859375 62.527344 55.753906 62.542969 55.636719 C 62.519531 55.464844 62.488281 55.265625 62.453125 55.058594 L 62.566406 55.636719 L 62.527344 56.15625 C 62.554688 55.957031 62.582031 55.78125 62.601562 55.636719 C 62.578125 55.464844 62.554688 55.316406 62.535156 55.183594 C 62.511719 55.042969 62.492188 54.921875 62.472656 54.808594 C 62.425781 54.582031 62.390625 54.394531 62.351562 54.195312 C 62.273438 53.796875 62.191406 53.351562 62.082031 52.4375 L 62.144531 53.085938 C 62.015625 52.082031 61.613281 49.476562 61.519531 48.351562 C 61.507812 48.253906 61.492188 48.167969 61.480469 48.085938 C 61.445312 47.945312 61.414062 47.867188 61.464844 48.234375 C 61.359375 47.554688 61.257812 46.832031 61.15625 46.101562 C 61.058594 45.359375 60.957031 44.613281 60.859375 43.894531 C 60.90625 43.289062 60.953125 42.699219 60.996094 42.152344 C 61.03125 41.609375 61.0625 41.105469 61.082031 40.660156 L 61.042969 40.851562 C 61.078125 40.433594 61.132812 40.105469 61.152344 39.625 C 61.148438 39.660156 61.148438 39.664062 61.144531 39.707031 C 61.148438 39.664062 61.152344 39.605469 61.15625 39.550781 C 61.15625 39.515625 61.160156 39.484375 61.160156 39.449219 L 61.136719 39.414062 C 61.160156 39.191406 61.246094 38.367188 61.28125 37.75 C 61.28125 37.722656 61.28125 37.695312 61.28125 37.664062 L 61.226562 38.078125 C 61.304688 36.667969 61.402344 35.640625 61.5 34.628906 C 61.5 34.605469 61.496094 34.609375 61.496094 34.558594 C 61.511719 34.566406 61.535156 34.214844 61.570312 33.804688 L 61.503906 34.203125 C 61.527344 33.851562 61.550781 33.503906 61.570312 33.082031 L 61.539062 33.789062 C 61.578125 33.332031 61.632812 32.734375 61.699219 32.042969 C 61.679688 31.566406 61.753906 30.160156 61.800781 29.359375 L 61.785156 29.394531 C 61.804688 29.136719 61.820312 28.890625 61.835938 28.675781 C 61.707031 28.078125 61.589844 27.523438 61.476562 26.984375 C 61.363281 26.433594 61.253906 25.902344 61.148438 25.371094 C 60.933594 24.316406 60.71875 23.269531 60.480469 22.09375 C 60.273438 21.339844 59.988281 20.085938 59.675781 18.699219 C 59.523438 18.003906 59.359375 17.277344 59.203125 16.566406 C 59.121094 16.210938 59.042969 15.859375 58.964844 15.515625 C 58.925781 15.34375 58.886719 15.175781 58.847656 15.011719 C 58.828125 14.925781 58.8125 14.84375 58.792969 14.765625 L 58.765625 14.644531 L 58.757812 14.625 L 58.742188 14.617188 C 58.707031 14.59375 58.675781 14.574219 58.644531 14.554688 C 58.582031 14.515625 58.519531 14.476562 58.457031 14.4375 C 58.804688 14.644531 58.433594 14.351562 58.042969 14.089844 C 57.519531 13.765625 56.636719 13.113281 56.683594 13.226562 L 56.871094 13.347656 C 56.4375 13.148438 55.378906 12.441406 54.542969 11.902344 L 54.457031 11.734375 C 54 11.46875 53.488281 11.15625 52.960938 10.820312 C 52.695312 10.648438 52.425781 10.476562 52.152344 10.300781 C 51.910156 10.140625 51.667969 9.984375 51.425781 9.824219 C 50.5625 10.101562 49.714844 10.371094 48.988281 10.605469 C 48.234375 10.851562 47.605469 11.070312 47.21875 11.234375 C 46.617188 11.40625 45.875 11.652344 45.28125 11.824219 L 45.328125 11.859375 C 43.679688 12.417969 42.859375 12.691406 40.816406 13.355469 L 41.242188 13.25 C 40.09375 13.632812 39.746094 13.59375 38.683594 13.941406 L 38.386719 14.117188 C 36.378906 14.777344 34.367188 15.507812 32.363281 16.097656 C 32.398438 16.097656 32.464844 16.097656 32.792969 15.992188 C 31.878906 16.296875 29.339844 17.179688 29.445312 17.050781 C 29.230469 17.175781 27.332031 17.742188 26.300781 18.050781 L 26.488281 18.042969 C 25.554688 18.285156 25.519531 18.277344 24.234375 18.683594 C 24.011719 18.761719 23.984375 18.789062 24.140625 18.742188 C 23.445312 18.980469 23.449219 18.921875 22.363281 19.304688 L 22.828125 19.183594 C 22.550781 19.277344 22.351562 19.339844 22.199219 19.390625 C 22.050781 19.4375 21.925781 19.476562 21.898438 19.480469 C 21.882812 19.5 21.871094 19.515625 21.855469 19.535156 C 21.832031 19.566406 21.804688 19.601562 21.777344 19.636719 C 21.722656 19.707031 21.660156 19.789062 21.578125 19.898438 C 21.183594 20.464844 20.445312 21.640625 20.394531 21.800781 C 20.335938 21.863281 20.195312 22.046875 20.023438 22.285156 C 20.011719 22.308594 20.003906 22.320312 19.992188 22.339844 C 19.992188 22.335938 19.972656 22.363281 19.957031 22.382812 C 19.839844 22.550781 19.714844 22.734375 19.585938 22.9375 C 19.550781 23.019531 19.691406 22.828125 19.757812 22.734375 C 18.78125 24.28125 18.214844 24.976562 17.5625 26.058594 C 17.5625 26.089844 17.523438 26.160156 17.46875 26.25 C 18.203125 25.132812 18.804688 24.214844 18.847656 24.144531 C 18.875 24.183594 18.25 25.152344 18.8125 24.40625 C 18.265625 25.175781 17.316406 26.484375 16.703125 27.457031 L 16.632812 27.589844 L 16.703125 27.492188 L 16.296875 28.09375 C 16.105469 28.402344 15.980469 28.601562 15.789062 28.894531 C 15.746094 29.027344 15.066406 30.03125 14.742188 30.523438 C 14.730469 30.457031 14.324219 31.085938 14.664062 30.496094 C 14.65625 30.511719 14.769531 30.347656 14.957031 30.0625 L 15.097656 29.859375 L 15.074219 29.886719 C 15.285156 29.566406 15.5625 29.148438 15.875 28.675781 C 15.601562 29.046875 15.316406 29.441406 14.984375 29.996094 C 14.792969 30.230469 14.582031 30.488281 14.46875 30.636719 C 14.085938 31.34375 13.265625 32.65625 13.183594 32.859375 C 12.175781 34.339844 10.851562 36.371094 10.15625 37.261719 C 10.011719 37.46875 9.9375 37.59375 9.886719 37.6875 C 9.863281 37.734375 9.84375 37.773438 9.824219 37.808594 L 9.796875 37.867188 L 9.785156 37.898438 L 9.785156 37.902344 L 9.785156 37.898438 L 10.222656 37.273438 C 10.101562 37.453125 9.953125 37.667969 9.792969 37.902344 C 9.699219 38.394531 9.59375 38.941406 9.507812 39.386719 C 9.417969 39.84375 9.339844 40.195312 9.300781 40.285156 C 9.097656 41.550781 9.484375 39.585938 9.160156 41.316406 L 9.222656 41.089844 C 8.707031 44.519531 8.054688 46.609375 7.5 50.421875 L 7.558594 49.964844 C 7.46875 50.5 7.375 51.039062 7.28125 51.582031 C 7.183594 52.117188 7.089844 52.65625 6.992188 53.195312 C 7.175781 54.863281 7.363281 56.550781 7.546875 58.222656 C 7.738281 59.902344 7.933594 61.566406 8.152344 63.179688 C 8.308594 64.402344 8.285156 64.539062 8.335938 65.285156 L 8.417969 65.546875 L 8.503906 66.828125 C 8.585938 67.734375 8.707031 68.515625 8.832031 69.355469 C 8.890625 69.773438 8.953125 70.210938 9.011719 70.683594 C 9.042969 70.921875 9.070312 71.167969 9.09375 71.425781 C 9.121094 71.703125 9.148438 71.996094 9.175781 72.300781 L 9.132812 72.101562 L 9.097656 71.953125 C 9.121094 72.136719 9.144531 72.355469 9.171875 72.601562 C 8.695312 72.574219 8.136719 72.542969 7.714844 72.519531 C 7.324219 72.5 7.058594 72.492188 7.113281 72.511719 C 7.03125 72.5 6.847656 72.457031 6.519531 72.460938 L 6.496094 72.488281 L 4.472656 72.332031 C 2.90625 72.269531 4.714844 72.457031 2.425781 72.339844 C 1.578125 72.285156 0.0078125 72.132812 0.328125 72.128906 C 0.671875 72.148438 1.207031 72.160156 1.230469 72.132812 L 0.453125 72.078125 C 0.433594 72.0625 0.402344 72.050781 0.371094 72.035156 L 0.257812 72.027344 L 0.257812 71.929688 L 0.234375 71.792969 L 0.257812 71.820312 L 0.257812 71.496094 L 0.25 71.046875 C 0.222656 71.070312 0.207031 71.605469 0.203125 71.953125 C 0.1875 72.273438 0.117188 70.691406 0.105469 69.839844 C 0.109375 67.535156 0.199219 69.359375 0.21875 67.785156 L 0.171875 65.75 L 0.199219 65.726562 C 0.21875 65.402344 0.1875 65.214844 0.183594 65.132812 C 0.222656 65.269531 0.195312 63.472656 0.203125 62.648438 L 0.167969 62.945312 C 0.0976562 61.105469 0.195312 59.886719 0.214844 58.539062 C 0.257812 58.199219 0.296875 57.855469 0.332031 57.488281 L 0.414062 56.207031 L 0.496094 55.945312 C 0.550781 55.195312 0.523438 55.0625 0.679688 53.839844 C 1.261719 49.546875 1.671875 44.914062 2.222656 40.558594 L 2.148438 41.011719 C 2.390625 39.371094 2.527344 38.03125 2.640625 36.761719 C 2.695312 36.125 2.75 35.511719 2.804688 34.882812 C 2.835938 34.570312 2.867188 34.253906 2.898438 33.929688 C 2.933594 33.597656 2.972656 33.257812 3.007812 32.910156 C 3.125 32.710938 3.246094 32.511719 3.371094 32.308594 C 3.488281 32.113281 3.613281 31.914062 3.738281 31.710938 L 3.636719 31.921875 C 4.515625 30.398438 3.53125 32.140625 4.203125 31.046875 C 4.273438 30.808594 5.292969 29.089844 5.785156 28.199219 L 5.398438 28.902344 C 5.507812 28.746094 5.578125 28.699219 5.828125 28.257812 C 6.316406 27.238281 7.550781 25.148438 8.429688 23.585938 C 8.539062 23.464844 9.027344 22.691406 9.457031 22.039062 C 9.515625 21.933594 9.570312 21.832031 9.613281 21.742188 L 9.542969 21.851562 C 9.839844 21.355469 9.980469 21.128906 10.054688 21.023438 C 10.101562 20.917969 10.152344 20.808594 10.199219 20.703125 C 10.328125 20.503906 10.441406 20.316406 10.542969 20.140625 C 10.59375 20.054688 10.640625 19.96875 10.6875 19.886719 C 10.734375 19.796875 10.78125 19.710938 10.828125 19.628906 C 10.921875 19.535156 11.011719 19.449219 11.101562 19.359375 L 10.8125 19.617188 L 10.253906 20.578125 L 10.269531 20.542969 L 10.148438 20.757812 C 9.980469 21.054688 9.882812 21.226562 9.890625 21.214844 C 9.515625 21.777344 9.898438 21.136719 9.832031 21.152344 C 9.957031 20.9375 10.140625 20.625 10.3125 20.328125 C 10.402344 20.179688 10.484375 20.035156 10.558594 19.910156 C 10.597656 19.847656 10.632812 19.789062 10.664062 19.738281 C 10.703125 19.675781 10.738281 19.621094 10.765625 19.578125 C 10.789062 19.558594 10.808594 19.542969 10.824219 19.527344 L 10.855469 19.503906 C 10.875 19.492188 10.886719 19.484375 10.898438 19.476562 C 11.160156 19.246094 11.339844 19.09375 11.613281 18.859375 L 12.152344 18.375 L 12.070312 18.457031 L 12.191406 18.371094 C 12.21875 18.34375 12.257812 18.3125 12.285156 18.285156 C 12.617188 17.976562 12.675781 17.929688 12.652344 17.960938 C 13.441406 17.253906 14.335938 16.394531 14.90625 15.851562 C 14.25 16.511719 15.117188 15.757812 15.15625 15.78125 C 15.089844 15.835938 14.269531 16.558594 13.273438 17.441406 C 13.351562 17.375 13.421875 17.328125 13.449219 17.324219 C 13.730469 17.089844 13.984375 16.871094 14.230469 16.644531 L 14.246094 16.628906 L 14.261719 16.621094 C 14.699219 16.222656 15.140625 15.808594 15.722656 15.289062 C 15.761719 15.25 15.761719 15.25 15.816406 15.199219 C 15.832031 15.183594 15.855469 15.167969 15.871094 15.15625 C 16.042969 15.007812 16.226562 14.847656 16.425781 14.675781 C 16.371094 14.730469 16.300781 14.796875 16.265625 14.839844 C 16.546875 14.59375 16.867188 14.289062 17.179688 14 C 17.207031 13.96875 17.242188 13.933594 17.253906 13.917969 C 17.265625 13.910156 17.304688 13.878906 17.320312 13.871094 C 17.492188 13.707031 17.660156 13.554688 17.808594 13.429688 C 17.832031 13.4375 17.984375 13.3125 18.183594 13.140625 C 18.078125 13.207031 17.957031 13.304688 17.808594 13.429688 L 17.863281 13.335938 C 18.023438 13.191406 18.113281 13.175781 18.1875 13.140625 C 18.425781 12.9375 18.746094 12.652344 19.113281 12.332031 C 19.375 12.0625 19.4375 11.988281 20.140625 11.371094 L 19.800781 11.714844 C 20.007812 11.539062 20.136719 11.425781 20.253906 11.316406 C 20.320312 11.257812 20.417969 11.167969 20.539062 11.054688 C 20.71875 10.878906 20.882812 10.722656 21.1875 10.457031 C 21.152344 10.488281 21.136719 10.507812 21.128906 10.519531 C 21.511719 10.167969 21.953125 9.773438 22.351562 9.410156 C 22.523438 9.238281 22.691406 9.070312 22.972656 8.785156 L 22.875 8.933594 C 22.910156 8.902344 22.945312 8.867188 22.976562 8.839844 L 22.945312 8.855469 C 22.960938 8.847656 23 8.8125 23.023438 8.796875 C 23.835938 8.042969 25.121094 6.839844 25.324219 6.726562 C 25.308594 6.726562 25.3125 6.714844 25.328125 6.691406 C 25.34375 6.675781 25.363281 6.652344 25.390625 6.625 C 25.402344 6.609375 25.417969 6.59375 25.4375 6.578125 C 25.464844 6.550781 25.496094 6.523438 25.527344 6.492188 C 25.621094 6.464844 25.734375 6.433594 25.863281 6.394531 C 25.976562 6.363281 26.097656 6.332031 26.234375 6.292969 C 26.5 6.226562 26.804688 6.148438 27.113281 6.066406 C 27.730469 5.914062 28.355469 5.753906 28.722656 5.664062 C 28.390625 5.753906 28.335938 5.789062 28.304688 5.808594 C 30.3125 5.21875 32.398438 4.746094 34.441406 4.214844 L 34.617188 4.210938 C 34.675781 4.1875 34.722656 4.167969 34.777344 4.144531 C 34.972656 4.101562 35.335938 4.011719 35.710938 3.917969 C 36.175781 3.753906 36.558594 3.589844 37.3125 3.398438 L 36.898438 3.542969 C 38.976562 2.992188 39.8125 2.78125 41.5 2.359375 L 41.480469 2.417969 C 42.074219 2.238281 42.828125 2.042969 43.425781 1.863281 C 44.140625 1.742188 45.539062 1.363281 47.070312 0.953125 L 47.050781 0.945312 C 47.152344 0.921875 47.21875 0.90625 47.253906 0.898438 C 47.292969 0.890625 47.304688 0.890625 47.304688 0.890625 C 47.566406 0.820312 47.832031 0.75 48.097656 0.679688 C 48.574219 0.8125 49.054688 0.945312 49.519531 1.074219 C 49.96875 1.203125 50.402344 1.332031 50.8125 1.460938 C 50.878906 1.460938 51.191406 1.539062 51.558594 1.640625 L 51.640625 1.617188 C 52.226562 1.78125 52.894531 1.964844 53.441406 2.125 C 54.414062 2.382812 55.304688 2.65625 56.140625 2.910156 C 56.289062 2.9375 56.335938 2.933594 56.128906 2.867188 C 56.910156 3.097656 57.8125 3.355469 58.730469 3.613281 L 58.792969 3.628906 C 58.8125 3.636719 58.808594 3.632812 58.824219 3.640625 C 59.230469 3.753906 59.636719 3.867188 60.039062 3.980469 C 60.285156 4.035156 60.496094 4.085938 60.601562 4.113281 C 61.394531 4.316406 61.726562 4.4375 62.101562 4.566406 C 62.867188 4.785156 63.542969 4.988281 64.007812 5.140625 C 64.355469 5.230469 64.667969 5.3125 64.996094 5.398438 C 64.953125 5.386719 64.945312 5.378906 64.890625 5.363281 L 64.519531 5.273438 C 64.175781 5.167969 63.726562 5.035156 64.152344 5.128906 L 64.289062 5.1875 C 64.824219 5.316406 66.296875 5.726562 65.960938 5.597656 C 66.707031 5.824219 66.351562 5.742188 65.808594 5.601562 C 66.242188 5.714844 66.617188 5.8125 66.972656 5.914062 C 67.5625 6.066406 68.152344 6.222656 68.769531 6.382812 C 68.90625 6.816406 69.042969 7.265625 69.1875 7.734375 C 69.316406 8.164062 69.449219 8.609375 69.589844 9.082031 L 69.570312 9.050781 C 69.695312 9.492188 69.882812 10.148438 70.035156 10.714844 C 70.039062 10.679688 69.96875 10.375 69.914062 10.164062 C 70.261719 11.460938 70.65625 12.554688 70.882812 13.285156 L 70.695312 12.605469 C 70.808594 13.011719 70.90625 13.34375 71.007812 13.683594 L 70.851562 13.308594 C 70.976562 13.703125 71.078125 14.039062 71.09375 14.027344 C 71.175781 14.386719 71.015625 13.964844 71.09375 14.351562 C 71.222656 14.75 71.355469 15.160156 71.496094 15.597656 C 71.519531 15.621094 71.613281 15.855469 71.492188 15.414062 C 71.550781 15.617188 71.621094 15.84375 71.703125 16.101562 L 71.667969 15.933594 C 72.191406 17.511719 71.828125 16.683594 72.320312 18.335938 C 72.289062 18.117188 72.492188 18.699219 72.566406 18.972656 C 72.367188 18.308594 72.421875 18.671875 72.578125 19.285156 C 72.660156 19.535156 72.71875 19.726562 72.765625 19.886719 C 72.789062 19.953125 72.8125 20.019531 72.835938 20.09375 L 72.808594 20.035156 C 72.921875 20.433594 72.960938 20.621094 73.074219 20.996094 L 72.933594 20.550781 C 73.273438 21.742188 73.742188 23.210938 74.199219 24.683594 C 74.230469 24.71875 74.222656 24.632812 74.320312 24.929688 C 74.464844 25.464844 74.566406 25.792969 74.664062 26.089844 C 74.714844 26.238281 74.761719 26.382812 74.8125 26.539062 C 74.835938 26.613281 74.863281 26.695312 74.890625 26.785156 C 74.921875 26.882812 74.953125 26.988281 74.988281 27.105469 C 74.988281 27.203125 74.988281 27.308594 74.988281 27.421875 C 74.984375 27.527344 74.984375 27.636719 74.980469 27.757812 C 74.945312 27.429688 74.945312 27.351562 74.925781 27.847656 C 74.941406 28.253906 74.949219 28.730469 74.953125 29.234375 C 74.957031 29.34375 74.957031 29.453125 74.957031 29.558594 C 74.964844 30.558594 74.972656 31.578125 74.976562 32.125 L 74.945312 31.472656 C 74.976562 32.636719 74.941406 33.058594 74.917969 33.570312 C 74.917969 33.683594 74.917969 33.792969 74.921875 33.914062 L 74.914062 33.664062 C 74.898438 34.035156 74.886719 34.480469 74.910156 35.292969 L 74.960938 34.121094 C 74.945312 34.953125 74.960938 35.660156 75 35.464844 C 74.976562 36.234375 74.949219 35.867188 74.933594 36.421875 C 74.933594 36.582031 74.929688 36.730469 74.925781 36.90625 C 74.925781 36.953125 74.925781 36.984375 74.925781 37.042969 L 74.925781 37.027344 C 74.917969 37.335938 74.90625 37.617188 74.882812 37.691406 L 74.925781 38.652344 C 74.9375 39.449219 74.914062 39.933594 74.894531 40.382812 C 74.898438 40.335938 74.910156 40.257812 74.921875 40.132812 C 74.921875 40.679688 74.921875 41.203125 74.917969 41.71875 C 74.921875 41.632812 74.925781 41.589844 74.929688 41.445312 C 74.929688 41.980469 74.933594 42.453125 74.914062 42.5 C 74.914062 42.554688 74.914062 42.605469 74.914062 42.65625 C 74.914062 42.78125 74.914062 42.933594 74.910156 43.128906 C 74.90625 43.464844 74.902344 43.792969 74.902344 44.121094 L 74.902344 44.660156 L 74.898438 44.574219 L 74.898438 44.167969 C 74.898438 44.292969 74.898438 44.410156 74.898438 44.53125 L 74.898438 44.585938 C 74.890625 45.703125 74.886719 46.785156 74.910156 47.871094 C 74.859375 48.351562 74.855469 49.480469 74.851562 50.507812 C 74.855469 51.179688 74.863281 51.792969 74.890625 52.246094 C 74.882812 53.414062 74.875 54.789062 74.867188 55.875 C 74.867188 55.917969 74.867188 55.957031 74.867188 56 L 74.878906 55.828125 C 74.886719 56.25 74.882812 56.503906 74.875 56.695312 C 74.875 57.082031 74.875 57.449219 74.878906 57.691406 C 74.871094 57.476562 74.863281 57.226562 74.855469 56.964844 C 74.84375 57.085938 74.835938 57.203125 74.824219 57.351562 C 74.835938 57.738281 74.84375 58.089844 74.847656 58.3125 L 74.816406 58.472656 L 74.816406 58.503906 C 74.871094 59.386719 74.84375 57.578125 74.867188 58.132812 C 74.980469 58.375 74.851562 60.226562 74.917969 61.394531 L 74.925781 61.113281 C 74.964844 62.003906 74.882812 63.292969 74.890625 64.75 Z M 74.867188 26.972656 C 74.871094 27.007812 74.875 27.035156 74.894531 27.121094 C 74.894531 27.140625 74.894531 27.167969 74.890625 27.195312 C 74.902344 27.3125 74.910156 27.457031 74.917969 27.613281 L 74.921875 27.113281 L 74.871094 26.933594 C 74.863281 26.925781 74.863281 26.941406 74.867188 26.972656 Z M 10.757812 19.621094 C 10.746094 19.632812 10.734375 19.652344 10.714844 19.679688 C 10.699219 19.699219 10.679688 19.726562 10.65625 19.765625 C 10.609375 19.839844 10.542969 19.949219 10.449219 20.121094 L 10.390625 20.265625 L 10.410156 20.222656 Z M 15.703125 29.027344 L 15.320312 29.59375 L 15.289062 29.628906 L 15.398438 29.511719 C 15.617188 29.191406 15.679688 29.078125 15.703125 29.027344 Z M 51.433594 1.640625 C 51.453125 1.648438 51.46875 1.652344 51.488281 1.65625 L 51.492188 1.65625 Z M 18.847656 24.144531 C 18.851562 24.140625 18.851562 24.136719 18.847656 24.144531 Z M 71.492188 15.414062 C 71.46875 15.332031 71.441406 15.230469 71.402344 15.097656 C 71.429688 15.195312 71.460938 15.304688 71.492188 15.414062 Z M 15.15625 15.78125 C 15.15625 15.78125 15.160156 15.777344 15.160156 15.777344 C 15.164062 15.773438 15.164062 15.773438 15.15625 15.78125 Z M 9.902344 21.195312 C 9.898438 21.203125 9.894531 21.207031 9.890625 21.214844 C 9.894531 21.210938 9.898438 21.207031 9.902344 21.195312 Z M 14.984375 29.996094 L 14.867188 30.195312 L 14.957031 30.0625 L 15.074219 29.886719 Z M 16.722656 14.328125 C 16.761719 14.304688 16.15625 14.867188 16.773438 14.332031 C 17.21875 13.917969 17.121094 13.996094 16.722656 14.328125 Z M 57.925781 3.371094 L 56.921875 3.078125 L 57.183594 3.15625 Z M 74.886719 50.734375 L 74.945312 50.925781 C 74.960938 50.21875 74.898438 50.308594 74.886719 50.734375 Z M 69.765625 72.199219 C 70.191406 72.226562 70.886719 72.207031 71.152344 72.179688 C 70.871094 72.171875 70.320312 72.195312 69.765625 72.199219 Z M 53.015625 10.886719 L 53.789062 11.40625 L 53.382812 11.121094 Z M 53.015625 10.886719 " fill-opacity="1" fill-rule="nonzero"/></g></g></g></g></g></svg>