<svg xmlns="http://www.w3.org/2000/svg" xmlns:xlink="http://www.w3.org/1999/xlink" width="100" zoomAndPan="magnify" viewBox="0 0 75 74.999997" height="100" preserveAspectRatio="xMidYMid meet" version="1.0"><defs><clipPath id="e826fe5304"><path d="M 13 3 L 61 3 L 61 69 L 13 69 Z M 13 3 " clip-rule="nonzero"/></clipPath><clipPath id="a01435bc9a"><path d="M 16.773438 0 L 63.597656 6.320312 L 54.363281 74.703125 L 7.539062 68.378906 Z M 16.773438 0 " clip-rule="nonzero"/></clipPath><clipPath id="b4aa086b42"><path d="M 16.773438 0 L 63.597656 6.320312 L 54.363281 74.703125 L 7.539062 68.378906 Z M 16.773438 0 " clip-rule="nonzero"/></clipPath></defs><g clip-path="url(#e826fe5304)"><g clip-path="url(#a01435bc9a)"><g clip-path="url(#b4aa086b42)"><path fill="#d6e8f7" d="M 56.839844 38.878906 L 39.589844 34.207031 L 41.578125 30.230469 C 41.578125 30.230469 49.351562 30.78125 53.867188 29.351562 C 58.378906 27.925781 60.972656 25.445312 60.390625 23.785156 C 59.804688 22.125 46.292969 28.648438 45.050781 28.480469 C 43.804688 28.3125 42.578125 28.238281 42.578125 28.238281 L 43.308594 26.785156 C 43.390625 26.644531 43.320312 26.46875 43.175781 26.402344 C 43.046875 26.339844 42.90625 26.367188 42.816406 26.476562 C 42.816406 26.476562 42.730469 4.144531 40.136719 3.472656 C 37.539062 2.804688 37.984375 7.746094 38.335938 16.792969 C 38.6875 25.84375 41.023438 28.667969 41.023438 28.667969 C 40.898438 28.925781 39.894531 30.917969 38.328125 33.824219 C 38.328125 33.824219 34.207031 24.644531 32.125 21.855469 C 30.042969 19.066406 27.117188 15.066406 26.125 15.402344 C 25.132812 15.742188 24.941406 14.773438 26.265625 18.996094 C 27.460938 22.808594 35.898438 33.160156 37.578125 35.183594 C 36.605469 36.953125 35.480469 38.972656 34.25 41.074219 C 34.25 41.074219 31.023438 37.597656 29.710938 34.421875 C 28.398438 31.25 24.714844 20.078125 21.171875 19.28125 C 17.632812 18.484375 26.292969 36 28.441406 38.964844 C 29.660156 40.667969 31.207031 42.105469 32.984375 43.199219 C 31.84375 45.097656 30.632812 47.03125 29.40625 48.902344 C 28.886719 48.210938 25.105469 42.984375 23.195312 38.578125 C 21.144531 33.84375 19.320312 26.558594 16.582031 27.847656 C 13.839844 29.132812 23.085938 43.777344 24.660156 45.707031 C 25.984375 47.332031 27.53125 50.125 27.996094 50.980469 C 27.941406 51.046875 27.898438 51.117188 27.84375 51.203125 C 27.011719 52.382812 26.183594 53.53125 25.363281 54.621094 L 20.390625 48.265625 C 19.082031 46.203125 15.648438 34.410156 13.667969 36.195312 C 11.683594 37.980469 15.644531 42.589844 16.816406 46.109375 C 17.921875 49.464844 23.792969 55.414062 24.34375 55.976562 C 18.882812 63.054688 14.148438 67.796875 15.003906 68.582031 C 16.039062 69.527344 17.695312 67.773438 17.867188 67.523438 L 17.867188 67.507812 L 22.417969 61.523438 L 26.710938 55.976562 C 29.824219 57.78125 45.675781 66.824219 47.238281 64.632812 C 48.988281 62.191406 42.269531 60.492188 37.609375 59.394531 C 32.945312 58.292969 27.398438 55.0625 27.398438 55.0625 L 31.191406 50.148438 L 36.078125 53.773438 C 36.078125 53.773438 50.394531 58.351562 51.796875 55.179688 C 53.203125 52.011719 44.492188 52.171875 41.011719 52.066406 C 38.320312 51.976562 34.128906 49.664062 32.359375 48.617188 L 34.601562 44.132812 C 36.886719 45.277344 39.265625 46.207031 41.722656 46.917969 C 47.488281 48.640625 53.976562 49.667969 54.605469 47.394531 C 55.234375 45.121094 45.601562 45.085938 42.511719 44.5625 C 39.421875 44.035156 35.292969 42.71875 35.292969 42.71875 L 38.644531 36.011719 C 41.164062 37.460938 48.957031 41.722656 52.421875 41.277344 C 56.648438 40.738281 57.734375 39.941406 56.839844 38.878906 Z M 56.839844 38.878906 " fill-opacity="1" fill-rule="nonzero"/></g></g></g></svg>