<svg xmlns="http://www.w3.org/2000/svg" xmlns:xlink="http://www.w3.org/1999/xlink" width="100" zoomAndPan="magnify" viewBox="0 0 75 74.999997" height="100" preserveAspectRatio="xMidYMid meet" version="1.0"><defs><clipPath id="b0c58d36a5"><path d="M 13.125 3 L 61 3 L 61 75 L 13.125 75 Z M 13.125 3 " clip-rule="nonzero"/></clipPath></defs><g clip-path="url(#b0c58d36a5)"><path fill="#fdf3dd" d="M 20.386719 3.933594 C 20.386719 3.933594 23.890625 0.0078125 31.625 9.164062 C 39.363281 18.320312 38.277344 44.472656 31.625 39.242188 C 24.972656 34.011719 17.085938 17 20.386719 3.933594 Z M 52.109375 58.914062 C 52.109375 58.914062 47.183594 60.792969 44.523438 49.09375 C 41.867188 37.398438 54.867188 14.683594 58.371094 22.382812 C 61.875 30.085938 61.046875 48.808594 52.109375 58.914062 Z M 13.125 52.597656 C 13.125 52.597656 13.667969 47.351562 25.3125 50.246094 C 36.957031 53.140625 51.363281 74.992188 42.917969 74.636719 C 34.46875 74.28125 18.101562 65.140625 13.125 52.597656 Z M 13.125 52.597656 " fill-opacity="1" fill-rule="nonzero"/></g></svg>