<svg xmlns="http://www.w3.org/2000/svg" xmlns:xlink="http://www.w3.org/1999/xlink" width="100" zoomAndPan="magnify" viewBox="0 0 75 74.999997" height="100" preserveAspectRatio="xMidYMid meet" version="1.0"><defs><clipPath id="4c6755d7a2"><path d="M 2.660156 0 L 72.410156 0 L 72.410156 75 L 2.660156 75 Z M 2.660156 0 " clip-rule="nonzero"/></clipPath></defs><g clip-path="url(#4c6755d7a2)"><path fill="#3d739a" d="M 63.277344 21.601562 C 63.167969 21.546875 63.113281 21.53125 63.023438 21.5 C 63.085938 21.519531 63.171875 21.546875 63.277344 21.601562 Z M 49.800781 21.992188 L 49.851562 21.90625 L 49.742188 22.03125 C 49.734375 22.054688 49.730469 22.078125 49.726562 22.097656 Z M 58.71875 42.429688 C 58.542969 42.433594 58.363281 42.433594 58.1875 42.433594 C 58.519531 42.449219 58.855469 42.453125 59.191406 42.460938 Z M 43.589844 56.027344 L 43.636719 56.304688 L 43.683594 56.460938 C 43.65625 56.316406 43.621094 56.171875 43.589844 56.027344 Z M 3.070312 34.988281 C 3.089844 35.050781 3.117188 35.132812 3.164062 35.242188 C 3.117188 35.132812 3.101562 35.074219 3.070312 34.988281 Z M 15.953125 28.21875 C 15.945312 28.21875 15.9375 28.21875 15.929688 28.21875 C 15.941406 28.21875 15.949219 28.21875 15.953125 28.21875 Z M 67.078125 64.113281 C 67.09375 64.019531 67.105469 63.902344 67.117188 63.742188 C 67.105469 63.855469 67.09375 63.980469 67.078125 64.113281 Z M 7.804688 28.820312 C 7.804688 28.820312 7.804688 28.816406 7.804688 28.816406 C 7.796875 28.820312 7.796875 28.820312 7.804688 28.820312 Z M 72.386719 33.96875 L 72.308594 34.15625 C 72.324219 34.226562 72.328125 34.28125 72.332031 34.347656 C 72.308594 34.457031 72.28125 34.617188 72.25 34.800781 C 72.242188 34.84375 72.238281 34.890625 72.226562 34.941406 C 72.214844 34.988281 72.199219 35.035156 72.1875 35.085938 C 72.160156 35.1875 72.132812 35.289062 72.105469 35.394531 C 72.039062 35.933594 71.984375 36.425781 71.558594 37.195312 C 71.589844 37.121094 71.625 37.042969 71.652344 36.96875 L 71.730469 36.730469 C 71.472656 37.277344 71.191406 37.703125 70.925781 38.078125 C 70.863281 38.171875 70.792969 38.257812 70.722656 38.339844 C 70.652344 38.425781 70.585938 38.507812 70.519531 38.585938 C 70.390625 38.75 70.25 38.890625 70.113281 39.03125 C 69.570312 39.585938 69.015625 40.0625 68.199219 40.570312 L 68.183594 40.472656 C 67.632812 40.875 66.867188 41.277344 66.230469 41.550781 C 66.035156 41.597656 65.792969 41.648438 65.519531 41.730469 C 65.378906 41.769531 65.230469 41.800781 65.074219 41.839844 C 64.917969 41.878906 64.753906 41.925781 64.578125 41.960938 C 63.890625 42.125 63.074219 42.265625 62.21875 42.347656 L 62.242188 42.367188 C 62.007812 42.382812 61.957031 42.382812 61.957031 42.375 C 60.652344 42.484375 59.289062 42.453125 58.125 42.308594 C 58.054688 42.332031 57.710938 42.328125 57.300781 42.296875 L 57.214844 42.367188 C 57.097656 42.355469 56.972656 42.34375 56.847656 42.335938 C 56.75 42.324219 56.652344 42.3125 56.527344 42.289062 L 56.476562 42.285156 L 56.453125 42.285156 L 56.457031 42.289062 L 56.472656 42.296875 C 56.503906 42.320312 56.535156 42.339844 56.570312 42.363281 C 56.628906 42.402344 56.679688 42.441406 56.730469 42.484375 C 56.785156 42.523438 56.839844 42.574219 56.902344 42.632812 L 56.945312 42.675781 L 57.070312 42.78125 C 57.164062 42.855469 57.257812 42.933594 57.347656 43.007812 C 57.496094 43.085938 57.550781 43.089844 57.375 42.9375 C 57.726562 43.203125 58.070312 43.53125 58.441406 43.859375 C 58.625 44.023438 58.816406 44.183594 59 44.363281 C 59.179688 44.542969 59.363281 44.722656 59.542969 44.90625 L 59.601562 44.953125 C 59.613281 44.96875 59.609375 44.96875 59.621094 44.980469 C 59.78125 45.144531 59.945312 45.300781 60.101562 45.46875 C 60.253906 45.640625 60.402344 45.808594 60.554688 45.980469 C 60.753906 46.167969 60.921875 46.332031 61 46.421875 C 61.160156 46.578125 61.273438 46.730469 61.378906 46.859375 C 61.480469 46.992188 61.566406 47.109375 61.640625 47.214844 C 61.789062 47.425781 61.898438 47.601562 62.011719 47.78125 C 62.261719 48.132812 62.476562 48.480469 62.675781 48.785156 C 62.773438 48.9375 62.863281 49.082031 62.945312 49.21875 C 63.019531 49.359375 63.085938 49.492188 63.144531 49.609375 C 63.351562 49.933594 63.539062 50.230469 63.738281 50.539062 C 63.714844 50.496094 63.714844 50.480469 63.6875 50.429688 L 63.453125 50.085938 C 63.265625 49.746094 63.019531 49.304688 63.300781 49.6875 L 63.347656 49.84375 C 63.71875 50.316406 64.457031 51.796875 64.339844 51.421875 C 64.726562 52.242188 64.460938 51.792969 64.132812 51.203125 C 64.265625 51.441406 64.386719 51.660156 64.5 51.867188 C 64.609375 52.074219 64.691406 52.28125 64.785156 52.480469 C 64.945312 52.820312 65.117188 53.152344 65.269531 53.5 C 65.410156 53.851562 65.550781 54.207031 65.699219 54.574219 C 65.734375 54.664062 65.769531 54.757812 65.804688 54.851562 C 65.839844 54.945312 65.867188 55.039062 65.898438 55.136719 C 65.960938 55.328125 66.023438 55.523438 66.085938 55.726562 C 66.144531 55.925781 66.207031 56.128906 66.273438 56.335938 C 66.328125 56.546875 66.375 56.761719 66.425781 56.984375 L 66.398438 56.953125 C 66.449219 57.195312 66.511719 57.496094 66.578125 57.816406 C 66.640625 58.132812 66.671875 58.476562 66.714844 58.789062 C 66.738281 58.75 66.714844 58.414062 66.691406 58.175781 C 66.773438 58.902344 66.914062 59.5625 66.980469 60.160156 C 67.023438 60.457031 67.0625 60.734375 67.101562 60.992188 C 67.136719 61.246094 67.144531 61.480469 67.15625 61.6875 L 67.160156 61.304688 C 67.164062 61.175781 67.160156 61.046875 67.152344 60.921875 C 67.171875 61.148438 67.160156 61.359375 67.167969 61.558594 C 67.171875 61.757812 67.179688 61.945312 67.183594 62.140625 L 67.09375 61.707031 C 67.121094 62.152344 67.132812 62.535156 67.164062 62.527344 C 67.128906 62.921875 67.0625 62.433594 67 62.859375 C 67.015625 63.3125 67.015625 63.785156 66.972656 64.285156 C 66.988281 64.308594 66.996094 64.414062 67.019531 64.394531 C 67.03125 64.382812 67.054688 64.308594 67.078125 64.113281 C 67.054688 64.34375 67.03125 64.597656 66.992188 64.890625 L 67.046875 64.707031 C 67.023438 64.9375 67 65.121094 66.972656 65.273438 C 66.945312 65.425781 66.917969 65.546875 66.890625 65.640625 C 66.835938 65.832031 66.789062 65.933594 66.738281 66.035156 C 66.6875 66.136719 66.632812 66.242188 66.546875 66.429688 C 66.503906 66.527344 66.453125 66.640625 66.382812 66.789062 C 66.320312 66.9375 66.226562 67.113281 66.117188 67.328125 C 66.289062 67.136719 65.992188 67.785156 65.777344 68.042969 C 66.007812 67.710938 66.039062 67.613281 65.960938 67.679688 C 65.882812 67.746094 65.699219 67.96875 65.453125 68.230469 C 65.355469 68.34375 65.269531 68.441406 65.191406 68.53125 C 65.109375 68.613281 65.03125 68.683594 64.960938 68.75 C 64.902344 68.808594 64.84375 68.863281 64.777344 68.917969 L 64.824219 68.863281 C 64.726562 68.933594 64.644531 68.996094 64.566406 69.046875 C 64.488281 69.09375 64.414062 69.140625 64.34375 69.183594 C 64.269531 69.226562 64.199219 69.265625 64.117188 69.304688 C 64.039062 69.347656 63.957031 69.398438 63.855469 69.445312 C 63.933594 69.40625 64.007812 69.355469 64.082031 69.3125 C 64.160156 69.265625 64.234375 69.222656 64.304688 69.171875 C 63.710938 69.539062 62.980469 69.832031 62.175781 69.984375 C 61.375 70.140625 60.507812 70.164062 59.65625 70.03125 C 59.605469 70.050781 59.691406 70.109375 59.34375 70.054688 C 58.621094 69.855469 58.238281 69.730469 57.847656 69.605469 C 57.457031 69.472656 57.058594 69.332031 56.394531 68.9375 C 56.738281 69.054688 56.8125 69.089844 56.355469 68.804688 C 55.957031 68.613281 55.503906 68.359375 55.042969 68.066406 C 54.941406 68.003906 54.84375 67.941406 54.746094 67.878906 C 54.292969 67.585938 53.855469 67.265625 53.464844 66.984375 C 53.074219 66.707031 52.742188 66.441406 52.507812 66.269531 L 53.09375 66.652344 C 52.066406 65.933594 51.765625 65.589844 51.375 65.203125 C 51.277344 65.125 51.191406 65.046875 51.089844 64.960938 L 51.300781 65.132812 C 51.160156 64.988281 51.003906 64.832031 50.800781 64.648438 C 50.59375 64.460938 50.335938 64.242188 50.007812 63.957031 C 50.289062 64.269531 50.582031 64.570312 50.878906 64.871094 C 50.21875 64.265625 49.660156 63.75 49.761719 63.953125 C 49.1875 63.351562 49.511719 63.585938 49.105469 63.144531 C 48.992188 63.019531 48.882812 62.902344 48.75 62.765625 C 48.714844 62.726562 48.691406 62.703125 48.652344 62.660156 L 48.664062 62.667969 C 48.445312 62.421875 48.253906 62.183594 48.234375 62.09375 L 47.855469 61.742188 C 47.726562 61.625 47.605469 61.5 47.484375 61.382812 C 46.902344 60.75 46.621094 60.308594 46.351562 59.910156 C 46.371094 59.957031 46.410156 60.035156 46.476562 60.152344 C 46.382812 60.039062 46.289062 59.925781 46.203125 59.8125 C 46.117188 59.695312 46.03125 59.582031 45.949219 59.46875 C 45.78125 59.238281 45.609375 59.015625 45.453125 58.785156 C 45.503906 58.867188 45.523438 58.910156 45.613281 59.035156 C 45.273438 58.570312 44.988281 58.148438 44.988281 58.089844 C 44.957031 58.042969 44.925781 57.996094 44.894531 57.949219 C 44.816406 57.84375 44.734375 57.695312 44.628906 57.515625 C 44.535156 57.363281 44.441406 57.210938 44.351562 57.058594 L 44.210938 56.832031 L 44.085938 56.601562 L 43.789062 56.097656 L 43.847656 56.175781 L 44.058594 56.554688 C 43.996094 56.441406 43.933594 56.328125 43.871094 56.210938 L 43.847656 56.175781 L 43.839844 56.160156 C 43.769531 56.03125 43.695312 55.902344 43.625 55.769531 C 43.554688 55.640625 43.488281 55.507812 43.421875 55.375 C 43.40625 55.347656 43.394531 55.320312 43.378906 55.292969 C 43.46875 55.671875 43.550781 56.019531 43.636719 56.304688 C 43.734375 56.921875 43.828125 57.597656 43.890625 58.265625 C 43.953125 58.933594 44.003906 59.589844 44.023438 60.175781 C 44.027344 60.21875 44.027344 60.257812 44.03125 60.304688 L 44.042969 60.121094 C 44.085938 60.570312 44.078125 60.84375 44.066406 61.050781 C 44.078125 61.464844 44.082031 61.859375 44.074219 62.121094 C 44.066406 61.886719 44.050781 61.621094 44.039062 61.339844 C 44.019531 61.46875 43.996094 61.59375 43.980469 61.753906 C 43.996094 62.167969 44.003906 62.542969 44 62.78125 L 43.929688 62.949219 L 43.929688 62.980469 C 43.992188 63.933594 44.027344 61.996094 44.042969 62.589844 C 44.140625 62.722656 44.117188 63.285156 44.042969 63.972656 C 43.96875 64.65625 43.835938 65.457031 43.777344 66.089844 L 43.839844 65.789062 C 43.746094 66.757812 43.304688 68.101562 42.660156 69.546875 L 42.691406 69.554688 C 42.574219 69.738281 42.449219 69.988281 42.292969 70.222656 C 42.171875 70.46875 42.023438 70.6875 41.878906 70.863281 C 41.75 71.058594 41.601562 71.238281 41.460938 71.429688 C 41.304688 71.613281 41.160156 71.804688 40.988281 71.984375 C 40.964844 72.015625 40.96875 72.023438 40.921875 72.078125 C 40.898438 72.089844 40.898438 72.089844 40.882812 72.097656 C 40.523438 72.492188 40.113281 72.824219 39.738281 73.109375 C 40.15625 72.878906 40.300781 72.703125 40.128906 72.957031 C 39.628906 73.347656 40.074219 72.882812 39.269531 73.417969 C 39.089844 73.535156 38.933594 73.652344 38.757812 73.757812 C 38.660156 73.820312 38.554688 73.886719 38.449219 73.949219 C 38.398438 73.984375 38.347656 74.015625 38.300781 74.046875 C 38.246094 74.074219 38.199219 74.101562 38.152344 74.128906 C 37.964844 74.234375 37.820312 74.328125 37.785156 74.378906 C 37.984375 74.292969 38.1875 74.210938 38.382812 74.117188 C 38.574219 74.015625 38.773438 73.921875 38.957031 73.808594 C 38.699219 74.027344 38.316406 74.222656 37.917969 74.375 C 37.71875 74.453125 37.507812 74.503906 37.316406 74.570312 C 37.121094 74.628906 36.929688 74.667969 36.765625 74.71875 L 36.863281 74.746094 C 36.800781 74.761719 36.738281 74.777344 36.675781 74.792969 C 36.613281 74.804688 36.554688 74.8125 36.496094 74.824219 C 36.378906 74.84375 36.273438 74.859375 36.167969 74.875 C 35.964844 74.90625 35.78125 74.90625 35.613281 74.921875 C 35.445312 74.933594 35.292969 74.914062 35.148438 74.914062 C 35.003906 74.90625 34.867188 74.898438 34.726562 74.875 C 34.609375 74.867188 34.492188 74.863281 34.378906 74.855469 C 34.265625 74.851562 34.160156 74.824219 34.054688 74.808594 C 33.949219 74.789062 33.847656 74.769531 33.75 74.75 C 33.652344 74.71875 33.5625 74.6875 33.476562 74.65625 C 33.578125 74.679688 33.679688 74.710938 33.785156 74.726562 C 33.65625 74.683594 33.519531 74.636719 33.382812 74.589844 C 33.164062 74.535156 33.007812 74.449219 32.738281 74.347656 L 32.757812 74.351562 C 32.375 74.183594 32 73.984375 31.6875 73.769531 C 31.523438 73.675781 31.390625 73.550781 31.265625 73.453125 C 31.207031 73.398438 31.148438 73.351562 31.09375 73.304688 C 31.042969 73.253906 31 73.203125 30.960938 73.160156 L 30.820312 73.09375 C 30.734375 73 30.621094 72.886719 30.515625 72.738281 C 30.460938 72.667969 30.402344 72.589844 30.339844 72.511719 C 30.308594 72.472656 30.277344 72.429688 30.246094 72.386719 C 30.21875 72.34375 30.1875 72.296875 30.15625 72.253906 C 30.039062 72.066406 29.90625 71.875 29.792969 71.660156 C 29.734375 71.554688 29.675781 71.445312 29.617188 71.335938 C 29.5625 71.226562 29.511719 71.113281 29.457031 71 C 29.425781 70.933594 29.398438 70.882812 29.363281 70.804688 L 29.378906 70.828125 C 29.304688 70.671875 29.25 70.519531 29.183594 70.363281 C 29.105469 70.199219 29.042969 70.03125 28.972656 69.855469 C 29.003906 69.953125 29.035156 70.0625 29.066406 70.175781 C 29.105469 70.285156 29.148438 70.402344 29.191406 70.523438 C 29.277344 70.769531 29.394531 71.015625 29.507812 71.269531 C 29.5625 71.394531 29.636719 71.515625 29.699219 71.636719 C 29.769531 71.757812 29.824219 71.882812 29.902344 71.992188 C 30.046875 72.21875 30.175781 72.4375 30.320312 72.617188 C 30.1875 72.472656 30.042969 72.253906 29.875 72.015625 C 29.789062 71.902344 29.722656 71.765625 29.640625 71.636719 C 29.5625 71.503906 29.484375 71.371094 29.417969 71.234375 C 29.351562 71.097656 29.289062 70.964844 29.226562 70.839844 C 29.171875 70.710938 29.121094 70.585938 29.078125 70.476562 C 28.984375 70.253906 28.933594 70.074219 28.914062 69.976562 L 28.996094 70.210938 L 29.089844 70.441406 C 29.15625 70.59375 29.210938 70.75 29.285156 70.898438 C 29.117188 70.414062 28.914062 69.847656 28.738281 69.191406 C 28.535156 68.570312 28.367188 67.9375 28.246094 67.335938 C 28.234375 67.316406 28.226562 67.316406 28.214844 67.289062 L 28.21875 67.304688 L 28.214844 67.28125 C 28.117188 67.039062 28 66.429688 27.914062 65.71875 L 27.902344 65.746094 C 27.867188 65.507812 27.863281 65.378906 27.867188 65.292969 C 27.851562 65.15625 27.835938 65.019531 27.820312 64.878906 C 27.808594 64.742188 27.796875 64.601562 27.785156 64.464844 C 27.765625 64.191406 27.734375 63.921875 27.714844 63.671875 C 27.683594 63.167969 27.632812 62.738281 27.585938 62.480469 C 27.605469 61.160156 27.632812 59.851562 27.734375 58.492188 C 27.832031 57.132812 28.003906 55.71875 28.328125 54.210938 C 28.3125 54.710938 28.351562 54.585938 28.40625 54.316406 C 28.46875 54.050781 28.554688 53.644531 28.628906 53.570312 C 28.640625 53.503906 28.65625 53.433594 28.671875 53.363281 C 28.609375 53.460938 28.550781 53.5625 28.484375 53.671875 C 28.375 53.859375 28.253906 54.058594 28.128906 54.265625 C 28 54.46875 27.867188 54.675781 27.734375 54.886719 C 27.199219 55.726562 26.605469 56.546875 26.199219 56.996094 C 26.136719 57.082031 26.085938 57.160156 26.03125 57.234375 C 25.964844 57.375 25.945312 57.46875 26.183594 57.148438 C 25.40625 58.257812 24.445312 59.425781 23.488281 60.492188 C 22.527344 61.554688 21.574219 62.511719 20.863281 63.289062 L 21.042969 63.175781 C 20.71875 63.488281 20.414062 63.683594 20.054688 64.058594 C 20.082031 64.03125 20.089844 64.03125 20.121094 64 C 20.089844 64.03125 20.042969 64.074219 20 64.113281 C 19.976562 64.140625 19.949219 64.164062 19.925781 64.191406 L 19.933594 64.253906 C 19.839844 64.328125 19.617188 64.507812 19.359375 64.722656 C 19.230469 64.828125 19.09375 64.945312 18.953125 65.0625 C 18.816406 65.179688 18.675781 65.292969 18.550781 65.402344 C 18.535156 65.425781 18.515625 65.449219 18.496094 65.46875 L 18.863281 65.214844 C 17.742188 66.234375 16.832031 66.886719 15.898438 67.46875 C 15.886719 67.488281 15.894531 67.492188 15.851562 67.53125 C 15.839844 67.5 15.527344 67.71875 15.144531 67.949219 L 15.550781 67.773438 C 15.230469 67.984375 14.914062 68.1875 14.527344 68.4375 C 14.746094 68.300781 14.953125 68.152344 15.167969 68.011719 C 14.742188 68.269531 14.160156 68.570312 13.476562 68.890625 C 13.371094 68.96875 13.210938 69.074219 13.007812 69.1875 C 12.804688 69.292969 12.566406 69.421875 12.308594 69.535156 C 11.796875 69.769531 11.21875 69.964844 10.792969 70.085938 L 10.835938 70.097656 C 10.640625 70.144531 10.453125 70.195312 10.265625 70.238281 C 10.074219 70.273438 9.890625 70.304688 9.707031 70.339844 C 9.332031 70.398438 8.957031 70.433594 8.578125 70.414062 C 8.203125 70.402344 7.820312 70.332031 7.457031 70.1875 C 7.09375 70.039062 6.757812 69.800781 6.511719 69.515625 C 6.257812 69.230469 6.085938 68.910156 5.949219 68.59375 C 5.816406 68.273438 5.710938 67.953125 5.636719 67.628906 C 5.476562 66.984375 5.339844 66.3125 5.273438 65.59375 C 5.175781 65.152344 5.105469 64.546875 5.09375 63.84375 C 5.097656 63.492188 5.09375 63.117188 5.132812 62.726562 C 5.148438 62.53125 5.15625 62.332031 5.1875 62.132812 C 5.214844 61.929688 5.242188 61.726562 5.273438 61.523438 C 5.527344 59.875 6.136719 58.171875 6.726562 56.851562 C 6.644531 57.058594 6.679688 57.054688 6.757812 56.941406 C 6.839844 56.828125 6.984375 56.613281 7.105469 56.390625 C 7.238281 56.082031 7.507812 55.695312 7.699219 55.386719 C 7.902344 55.078125 8.054688 54.855469 7.96875 54.863281 L 7.839844 55.066406 C 7.925781 54.820312 8.160156 54.402344 8.484375 53.957031 C 8.5625 53.847656 8.644531 53.730469 8.730469 53.617188 C 8.820312 53.503906 8.914062 53.390625 9.003906 53.277344 C 9.09375 53.164062 9.1875 53.050781 9.277344 52.941406 C 9.371094 52.832031 9.464844 52.726562 9.554688 52.625 L 9.796875 52.605469 C 10 52.316406 10.253906 52.035156 10.515625 51.734375 C 10.648438 51.582031 10.792969 51.441406 10.9375 51.292969 C 11.085938 51.148438 11.230469 50.996094 11.390625 50.855469 C 12.007812 50.269531 12.703125 49.726562 13.378906 49.222656 C 14.738281 48.230469 16.050781 47.46875 16.65625 46.988281 C 16.957031 46.832031 17.292969 46.660156 17.628906 46.488281 C 17.796875 46.402344 17.964844 46.3125 18.132812 46.234375 C 18.214844 46.195312 18.296875 46.15625 18.375 46.121094 C 18.414062 46.101562 18.457031 46.082031 18.496094 46.066406 L 18.554688 46.039062 L 18.578125 46.03125 C 18.558594 46.007812 18.539062 45.984375 18.523438 45.957031 C 18.632812 45.890625 18.71875 45.839844 18.808594 45.789062 C 18.734375 45.789062 18.671875 45.789062 18.605469 45.78125 C 18.566406 45.777344 18.53125 45.773438 18.488281 45.769531 C 18.378906 45.757812 18.265625 45.746094 18.148438 45.734375 C 18.003906 45.71875 17.855469 45.703125 17.699219 45.679688 C 17.855469 45.722656 18.011719 45.757812 18.164062 45.796875 C 17.507812 45.730469 17.105469 45.601562 16.71875 45.472656 C 16.332031 45.339844 15.960938 45.203125 15.371094 45.070312 C 15.246094 45.089844 15.117188 45.109375 14.988281 45.121094 C 13.875 44.84375 12.757812 44.523438 11.6875 44.070312 C 10.621094 43.621094 9.589844 43.074219 8.6875 42.367188 C 8.707031 42.402344 8.734375 42.480469 9.050781 42.6875 C 8.820312 42.542969 8.488281 42.320312 8.128906 42.0625 C 7.953125 41.929688 7.765625 41.792969 7.585938 41.652344 C 7.40625 41.503906 7.230469 41.359375 7.066406 41.214844 C 6.90625 41.066406 6.753906 40.925781 6.621094 40.800781 C 6.492188 40.671875 6.382812 40.550781 6.300781 40.453125 C 6.152344 40.285156 6.085938 40.179688 6.140625 40.183594 C 6.027344 40.121094 5.648438 39.726562 5.242188 39.195312 C 4.789062 38.597656 4.324219 37.816406 4.042969 37.261719 C 4.046875 37.332031 4.050781 37.40625 4.0625 37.476562 C 3.851562 36.984375 3.757812 36.730469 3.644531 36.425781 C 3.589844 36.273438 3.519531 36.113281 3.445312 35.902344 C 3.367188 35.6875 3.265625 35.429688 3.15625 35.082031 C 3.066406 34.839844 3.019531 34.8125 3.070312 34.988281 C 2.929688 34.609375 2.90625 34.410156 2.863281 34.15625 C 2.84375 34.03125 2.824219 33.886719 2.800781 33.699219 C 2.777344 33.507812 2.75 33.269531 2.753906 32.9375 C 2.726562 33.117188 2.710938 33.304688 2.707031 33.488281 C 2.65625 32.859375 2.742188 32.554688 2.808594 32.339844 C 2.882812 32.128906 2.957031 31.984375 3.164062 31.699219 C 3.273438 31.53125 3.433594 31.339844 3.617188 31.160156 C 3.800781 30.976562 4.011719 30.804688 4.207031 30.65625 C 4.40625 30.5 4.59375 30.375 4.734375 30.265625 C 4.878906 30.15625 4.976562 30.070312 5.003906 30.035156 C 5.097656 30.015625 5.335938 29.921875 5.625 29.785156 C 5.644531 29.769531 5.65625 29.765625 5.683594 29.75 C 5.675781 29.757812 5.714844 29.742188 5.738281 29.734375 C 5.945312 29.648438 6.164062 29.542969 6.398438 29.433594 C 6.472656 29.371094 6.226562 29.449219 6.109375 29.5 C 7.003906 29.054688 7.726562 28.855469 8.363281 28.695312 C 8.6875 28.625 8.988281 28.550781 9.296875 28.496094 C 9.453125 28.464844 9.605469 28.429688 9.761719 28.398438 C 9.921875 28.367188 10.082031 28.332031 10.246094 28.296875 C 10.269531 28.261719 10.355469 28.230469 10.464844 28.207031 C 9.027344 28.410156 7.894531 28.785156 7.804688 28.816406 C 7.800781 28.777344 8.09375 28.660156 8.269531 28.578125 C 8.359375 28.542969 8.417969 28.511719 8.390625 28.5 C 8.363281 28.488281 8.246094 28.488281 7.992188 28.539062 C 8.246094 28.472656 8.546875 28.425781 8.871094 28.363281 C 9.035156 28.332031 9.207031 28.3125 9.382812 28.285156 C 9.554688 28.257812 9.734375 28.230469 9.914062 28.214844 C 10.632812 28.121094 11.382812 28.074219 12.003906 28.015625 L 12.164062 27.980469 L 12.035156 27.976562 C 12.296875 27.972656 12.558594 27.957031 12.824219 27.960938 C 13.019531 27.953125 13.183594 27.945312 13.34375 27.941406 C 13.503906 27.941406 13.660156 27.941406 13.851562 27.945312 C 13.925781 27.90625 14.292969 27.917969 14.71875 27.941406 C 15.148438 27.976562 15.632812 28.027344 15.949219 28.070312 C 15.886719 28.148438 16.691406 28.238281 15.953125 28.21875 C 15.972656 28.21875 15.761719 28.1875 15.394531 28.144531 L 15.128906 28.109375 L 15.167969 28.121094 C 14.960938 28.101562 14.722656 28.078125 14.460938 28.066406 C 14.328125 28.058594 14.1875 28.046875 14.046875 28.039062 C 13.902344 28.035156 13.753906 28.03125 13.597656 28.027344 C 13.847656 28.054688 14.101562 28.082031 14.382812 28.109375 C 14.660156 28.132812 14.964844 28.15625 15.3125 28.164062 C 15.628906 28.253906 15.976562 28.351562 16.171875 28.410156 C 16.386719 28.410156 16.65625 28.417969 16.933594 28.4375 C 17.214844 28.460938 17.511719 28.480469 17.785156 28.515625 C 18.335938 28.574219 18.804688 28.648438 18.929688 28.632812 C 19.863281 28.867188 20.957031 29.171875 21.945312 29.5 C 22.933594 29.820312 23.824219 30.160156 24.367188 30.433594 C 24.875 30.625 24.972656 30.585938 25.171875 30.625 L 24.375 30.3125 C 24.554688 30.382812 24.769531 30.460938 25 30.542969 C 24.929688 30.488281 24.761719 30.347656 24.414062 30.050781 L 24.582031 30.238281 C 23.109375 29.121094 22.023438 28.070312 20.933594 26.957031 C 19.84375 25.839844 18.746094 24.671875 17.320312 23.179688 L 17.667969 23.527344 C 16.875 22.660156 16.128906 21.722656 15.453125 20.730469 C 15.277344 20.488281 15.117188 20.230469 14.953125 19.976562 L 14.710938 19.597656 L 14.480469 19.203125 C 14.179688 18.671875 13.921875 18.113281 13.714844 17.535156 C 13.507812 16.960938 13.355469 16.355469 13.304688 15.738281 C 13.253906 15.121094 13.304688 14.484375 13.519531 13.890625 C 13.730469 13.300781 14.097656 12.765625 14.574219 12.359375 C 15.050781 11.945312 15.640625 11.683594 16.234375 11.546875 C 16.574219 11.46875 16.84375 11.449219 17.066406 11.441406 C 17.285156 11.4375 17.460938 11.453125 17.613281 11.472656 C 17.921875 11.511719 18.160156 11.570312 18.558594 11.671875 C 18.660156 11.65625 18.761719 11.644531 18.863281 11.632812 C 19.316406 11.769531 19.75 11.941406 20.171875 12.136719 C 20.625 12.328125 21.042969 12.511719 21.449219 12.703125 C 21.652344 12.800781 21.847656 12.902344 22.046875 13.003906 C 22.246094 13.105469 22.449219 13.199219 22.648438 13.3125 C 23.453125 13.738281 24.296875 14.257812 25.222656 15.082031 L 24.929688 14.9375 C 25.109375 15.070312 25.335938 15.246094 25.566406 15.441406 C 25.800781 15.632812 26.042969 15.839844 26.253906 16.03125 C 26.6875 16.40625 27.007812 16.714844 26.980469 16.636719 C 27.035156 16.707031 27.148438 16.878906 27.417969 17.101562 L 27.472656 17.085938 L 27.839844 17.488281 C 27.964844 17.621094 28.078125 17.761719 28.199219 17.898438 C 28.4375 18.171875 28.664062 18.457031 28.890625 18.742188 C 29.445312 19.375 29.4375 19.296875 29.496094 19.289062 C 29.550781 19.285156 29.679688 19.347656 30.417969 20.347656 C 30.433594 20.367188 30.449219 20.390625 30.460938 20.414062 C 30.554688 19.609375 30.613281 19.515625 30.652344 19.492188 C 30.707031 19.46875 30.738281 19.539062 30.871094 18.710938 C 30.9375 17.992188 31.027344 17.273438 31.136719 16.554688 L 31.191406 16.539062 C 31.292969 16.207031 31.277344 16 31.285156 15.910156 C 31.308594 15.992188 31.402344 15.558594 31.539062 15.003906 C 31.671875 14.449219 31.847656 13.773438 31.988281 13.355469 L 31.832031 13.640625 C 32.109375 12.433594 32.488281 11.527344 32.894531 10.714844 C 33.304688 9.902344 33.730469 9.175781 34.179688 8.316406 L 34.484375 7.695312 L 34.8125 7.089844 C 34.890625 7.027344 34.976562 6.96875 35.054688 6.910156 C 35.265625 6.566406 35.371094 6.351562 35.542969 6.101562 C 35.625 5.976562 35.71875 5.835938 35.847656 5.667969 C 35.984375 5.503906 36.148438 5.308594 36.371094 5.0625 C 37.96875 3.375 39.886719 1.855469 42.109375 0.871094 C 42.664062 0.628906 43.242188 0.433594 43.832031 0.289062 C 44.425781 0.140625 45.035156 0.0585938 45.644531 0.0585938 C 46.253906 0.0546875 46.867188 0.128906 47.449219 0.3125 C 48.03125 0.488281 48.574219 0.761719 49.066406 1.09375 C 48.933594 0.996094 48.800781 0.894531 48.660156 0.804688 C 49.554688 1.367188 50.226562 2.007812 50.796875 2.648438 C 51.082031 2.96875 51.34375 3.292969 51.574219 3.625 C 51.636719 3.707031 51.695312 3.789062 51.753906 3.867188 C 51.808594 3.953125 51.863281 4.035156 51.917969 4.121094 C 52.023438 4.285156 52.136719 4.449219 52.230469 4.625 C 52.628906 5.300781 52.964844 6.011719 53.210938 6.789062 C 53.460938 7.566406 53.628906 8.410156 53.679688 9.347656 L 53.617188 9.097656 C 53.675781 9.570312 53.6875 9.792969 53.6875 9.878906 C 53.691406 9.964844 53.679688 9.914062 53.667969 9.851562 C 53.640625 9.722656 53.601562 9.535156 53.617188 10.222656 C 53.679688 10.347656 53.726562 10.949219 53.707031 11.660156 C 53.6875 12.367188 53.578125 13.175781 53.5 13.71875 C 53.535156 13.433594 53.574219 13.144531 53.597656 12.859375 C 53.546875 13.058594 53.457031 13.128906 53.390625 13.667969 C 53.367188 14.277344 53.183594 15.226562 52.867188 16.226562 C 52.546875 17.226562 52.089844 18.273438 51.664062 19.140625 C 51.539062 19.269531 51.019531 20.105469 50.503906 20.773438 C 50.4375 20.886719 50.382812 20.992188 50.339844 21.089844 L 50.417969 20.980469 C 50.246094 21.238281 50.113281 21.417969 50.019531 21.554688 C 49.921875 21.6875 49.847656 21.777344 49.816406 21.804688 C 49.785156 21.890625 49.757812 21.96875 49.742188 22.03125 C 49.617188 22.167969 49.503906 22.3125 49.421875 22.429688 C 49.332031 22.546875 49.273438 22.640625 49.238281 22.710938 L 49.234375 22.71875 L 49.253906 22.710938 L 49.289062 22.691406 L 49.359375 22.660156 C 49.402344 22.636719 49.449219 22.617188 49.492188 22.59375 L 49.394531 22.632812 L 49.34375 22.648438 L 49.320312 22.660156 L 49.308594 22.664062 L 49.316406 22.652344 C 49.453125 22.472656 49.589844 22.289062 49.726562 22.097656 L 49.722656 22.113281 L 49.800781 21.992188 C 49.914062 21.824219 50.078125 21.578125 50.007812 21.667969 C 50.5 21.066406 50.03125 21.746094 50.132812 21.753906 C 50.089844 21.816406 50.035156 21.898438 49.976562 21.980469 C 49.941406 22.035156 49.90625 22.085938 49.867188 22.136719 C 49.792969 22.242188 49.714844 22.335938 49.617188 22.429688 C 49.597656 22.449219 49.609375 22.445312 49.605469 22.449219 L 49.589844 22.46875 C 49.734375 22.417969 49.800781 22.402344 49.972656 22.355469 L 50.378906 22.203125 L 50.316406 22.234375 L 50.402344 22.234375 C 50.433594 22.226562 50.46875 22.214844 50.496094 22.207031 C 50.953125 22.035156 51.03125 22.015625 50.992188 22.046875 C 52.070312 21.691406 53.335938 21.242188 54.160156 21.019531 C 53.203125 21.355469 54.425781 21.089844 54.453125 21.167969 C 54.367188 21.183594 53.210938 21.417969 51.835938 21.828125 C 51.945312 21.804688 52.035156 21.792969 52.070312 21.816406 C 52.449219 21.726562 52.796875 21.644531 53.144531 21.542969 L 53.164062 21.53125 L 53.183594 21.535156 C 53.792969 21.367188 54.421875 21.1875 55.246094 21.03125 C 55.300781 21.015625 55.300781 21.015625 55.382812 20.992188 C 55.402344 20.996094 55.433594 20.996094 55.457031 20.996094 C 55.703125 20.960938 55.957031 20.925781 56.238281 20.894531 C 56.160156 20.910156 56.058594 20.9375 56.003906 20.960938 C 56.398438 20.90625 56.871094 20.835938 57.324219 20.769531 C 57.367188 20.757812 57.421875 20.75 57.445312 20.738281 C 57.457031 20.746094 57.511719 20.746094 57.53125 20.75 C 57.785156 20.730469 58.03125 20.714844 58.242188 20.710938 C 58.25 20.730469 58.304688 20.738281 58.394531 20.746094 C 58.484375 20.757812 58.609375 20.769531 58.75 20.777344 C 58.617188 20.738281 58.449219 20.707031 58.242188 20.710938 L 58.351562 20.644531 C 58.585938 20.640625 58.667969 20.734375 58.753906 20.777344 C 58.921875 20.785156 59.121094 20.792969 59.347656 20.796875 C 59.570312 20.820312 59.816406 20.839844 60.078125 20.863281 C 60.179688 20.863281 60.261719 20.855469 60.347656 20.859375 C 60.429688 20.863281 60.511719 20.871094 60.613281 20.878906 C 60.714844 20.890625 60.832031 20.90625 60.988281 20.929688 C 61.066406 20.941406 61.15625 20.957031 61.253906 20.972656 C 61.355469 20.992188 61.464844 21.023438 61.585938 21.050781 C 61.414062 21.027344 61.242188 21.003906 61.066406 21 C 61.136719 21.015625 61.203125 21.027344 61.261719 21.039062 C 61.320312 21.054688 61.375 21.066406 61.425781 21.082031 C 61.527344 21.105469 61.617188 21.125 61.703125 21.148438 C 61.792969 21.164062 61.9375 21.195312 62.109375 21.234375 C 62.246094 21.25 62.367188 21.292969 62.511719 21.332031 C 62.65625 21.375 62.820312 21.425781 63.023438 21.5 C 62.976562 21.488281 62.953125 21.484375 62.933594 21.484375 C 63 21.503906 63.070312 21.527344 63.140625 21.550781 C 63.207031 21.574219 63.277344 21.605469 63.34375 21.632812 C 63.480469 21.691406 63.621094 21.75 63.761719 21.8125 C 64.046875 21.921875 64.316406 22.066406 64.578125 22.203125 C 64.699219 22.257812 64.816406 22.3125 64.957031 22.378906 C 65.027344 22.414062 65.101562 22.449219 65.183594 22.488281 C 65.261719 22.53125 65.351562 22.578125 65.449219 22.628906 L 65.246094 22.59375 C 65.285156 22.621094 65.332031 22.652344 65.371094 22.675781 L 65.351562 22.636719 C 65.359375 22.652344 65.410156 22.691406 65.429688 22.710938 C 65.972656 23.050781 66.648438 23.5625 67.148438 24.035156 C 67.273438 24.152344 67.390625 24.265625 67.496094 24.367188 C 67.59375 24.472656 67.683594 24.570312 67.753906 24.652344 C 67.863281 24.777344 67.933594 24.871094 67.957031 24.921875 C 67.96875 24.820312 68.417969 25.28125 68.902344 25.917969 C 69.429688 26.597656 69.988281 27.480469 70.269531 27.9375 C 70.066406 27.625 69.996094 27.589844 69.957031 27.570312 C 70.292969 28.027344 70.601562 28.5 70.890625 28.988281 C 71.183594 29.480469 71.457031 29.988281 71.691406 30.523438 C 71.925781 31.058594 72.117188 31.617188 72.246094 32.199219 C 72.304688 32.488281 72.355469 32.78125 72.367188 33.082031 L 72.402344 33.523438 Z M 14.023438 27.949219 L 14.761719 28 L 14.8125 28.015625 C 14.757812 27.996094 14.703125 27.980469 14.648438 27.960938 C 14.222656 27.921875 14.085938 27.933594 14.023438 27.949219 Z M 49.574219 22.453125 C 49.640625 22.394531 49.710938 22.332031 49.777344 22.222656 C 49.761719 22.222656 49.746094 22.21875 49.734375 22.210938 L 49.738281 22.21875 Z M 25.238281 30.632812 C 24.722656 30.234375 24.96875 30.484375 25.03125 30.554688 C 25.097656 30.582031 25.167969 30.605469 25.238281 30.632812 Z M 28.699219 53.230469 C 28.703125 53.222656 28.703125 53.21875 28.703125 53.210938 C 28.683594 53.246094 28.664062 53.277344 28.644531 53.308594 C 28.664062 53.285156 28.679688 53.253906 28.699219 53.230469 Z M 57.015625 69.074219 C 56.894531 69.035156 56.746094 68.976562 56.585938 68.910156 C 56.789062 69.019531 56.992188 69.128906 57.199219 69.230469 C 57.230469 69.222656 57.125 69.140625 57.015625 69.074219 Z M 57.433594 42.242188 C 57.414062 42.238281 57.394531 42.238281 57.375 42.234375 L 57.371094 42.238281 Z M 54.453125 21.167969 C 54.453125 21.171875 54.453125 21.171875 54.453125 21.171875 C 54.464844 21.167969 54.460938 21.167969 54.453125 21.167969 Z M 15.3125 28.164062 C 15.398438 28.164062 15.480469 28.164062 15.566406 28.167969 C 15.507812 28.160156 15.453125 28.148438 15.394531 28.144531 L 15.167969 28.121094 Z M 56.757812 20.789062 C 57.410156 20.695312 57.277344 20.699219 56.714844 20.722656 C 56.765625 20.738281 55.878906 20.855469 56.757812 20.789062 Z M 58.296875 43.6875 L 58.917969 44.25 L 58.078125 43.480469 Z M 32.339844 74.222656 C 32.277344 74.191406 32.214844 74.160156 32.148438 74.128906 C 32.082031 74.101562 32.015625 74.066406 31.953125 74.023438 C 31.828125 73.941406 31.695312 73.859375 31.566406 73.773438 C 31.921875 74.101562 32.636719 74.453125 32.945312 74.492188 C 32.871094 74.460938 32.78125 74.421875 32.675781 74.382812 C 32.570312 74.34375 32.460938 74.28125 32.339844 74.222656 Z M 10.957031 51.207031 L 10.585938 51.546875 C 10.460938 51.664062 10.34375 51.785156 10.222656 51.902344 C 10.355469 51.78125 10.484375 51.65625 10.621094 51.542969 Z M 10.957031 51.207031 " fill-opacity="0.8" fill-rule="nonzero"/></g></svg>